<?xml version="1.0" encoding="utf-8"?>
<!-- Generator: Adobe Illustrator 23.0.2, SVG Export Plug-In . SVG Version: 6.00 Build 0)  -->
<svg version="1.1" id="Layer_1" xmlns="http://www.w3.org/2000/svg" xmlns:xlink="http://www.w3.org/1999/xlink" x="0px" y="0px"
	 viewBox="0 0 508 508" style="enable-background:new 0 0 508 508;" xml:space="preserve">
<g>
	<path d="M437.5,139.9c-16.8-3.9-32.1-12.5-44.7-25.1c-12.2-12.1-20.7-27.4-24.6-44.2C356.7,21.8,302.6,0,254,0
		S151.3,21.8,139.9,70.5c-4,16.8-12.5,32.1-25.2,44.8C102.6,127.5,87.3,136,70.5,140C21.8,151.3,0,205.5,0,254
		c0,48.6,21.8,102.7,70.5,114.1c16.8,3.9,32.1,12.5,44.7,25.1c12.2,12.1,20.7,27.4,24.6,44.2C151.3,486.2,205.4,508,254,508l0,0
		c48.6,0,102.7-21.8,114.1-70.5c4-16.8,12.5-32.1,25.1-44.7c12.1-12.2,27.4-20.7,44.2-24.6C486.2,356.7,508,302.6,508,254
		S486.2,151.3,437.5,139.9z M433.8,352.2c-19.8,4.6-37.8,14.7-52.6,29.5c-14.3,14.3-24.4,32.3-29,52.1c-9.4,40-56.1,57.9-98.2,57.9
		l0,0c-42.1,0-88.8-17.9-98.2-57.9c-4.6-19.8-14.7-37.8-29.5-52.6c-14.3-14.3-32.3-24.4-52.1-29c-40-9.4-57.9-56.1-57.9-98.2
		s17.9-88.8,57.8-98.2c19.8-4.7,37.8-14.7,52.6-29.5c14.3-14.3,24.4-32.3,29-52.1c9.4-40,56.1-57.8,98.2-57.8s88.8,17.9,98.2,57.9
		c4.7,19.8,14.7,37.8,29.5,52.6c14.3,14.3,32.3,24.4,52.1,29c40,9.4,57.9,56.1,57.9,98.2C491.6,296.1,473.7,342.8,433.8,352.2z"/>
	<path d="M180.3,213c-22.6,0-41,18.4-41,41s18.4,41,41,41s41-18.4,41-41C221.2,231.4,202.8,213,180.3,213z M180.3,278.6
		c-13.6,0-24.6-11-24.6-24.6s11-24.6,24.6-24.6s24.6,11,24.6,24.6C204.8,267.6,193.8,278.6,180.3,278.6z"/>
	<path d="M327.7,213c-22.6,0-41,18.4-41,41s18.4,41,41,41s41-18.4,41-41S350.3,213,327.7,213z M327.7,278.6
		c-13.6,0-24.6-11-24.6-24.6s11-24.6,24.6-24.6s24.6,11,24.6,24.6C352.3,267.6,341.3,278.6,327.7,278.6z"/>
	<path d="M254,221.2c22.6,0,41-18.4,41-41s-18.4-41-41-41s-41,18.4-41,41S231.4,221.2,254,221.2z M254,155.7
		c13.6,0,24.6,11,24.6,24.6s-11,24.6-24.6,24.6s-24.6-11-24.6-24.6S240.4,155.7,254,155.7z"/>
	<path d="M254,286.8c-22.6,0-41,18.4-41,41s18.4,41,41,41s41-18.4,41-41C295,305.2,276.6,286.8,254,286.8z M254,352.3
		c-13.6,0-24.6-11-24.6-24.6s11-24.6,24.6-24.6s24.6,11,24.6,24.6S267.6,352.3,254,352.3z"/>
</g>
</svg>
