<?xml version="1.0" encoding="utf-8"?>
<!-- Generator: Adobe Illustrator 23.0.2, SVG Export Plug-In . SVG Version: 6.00 Build 0)  -->
<svg version="1.1" id="Layer_1" xmlns="http://www.w3.org/2000/svg" xmlns:xlink="http://www.w3.org/1999/xlink" x="0px" y="0px"
	 viewBox="0 0 508 508" style="enable-background:new 0 0 508 508;" xml:space="preserve">
<g>
	<path d="M401.5,0h-295C47.8,0,0,47.8,0,106.5v295C0,460.2,47.8,508,106.5,508h295c58.7,0,106.5-47.8,106.5-106.5v-295
		C508,47.8,460.2,0,401.5,0z M491.6,401.5c0,49.7-40.4,90.1-90.1,90.1h-295c-49.7,0-90.1-40.4-90.1-90.1v-295
		c0-49.7,40.4-90.1,90.1-90.1h295c49.7,0,90.1,40.4,90.1,90.1V401.5z"/>
	<path d="M401.5,49.2h-295c-31.6,0-57.4,25.7-57.4,57.4v295c0,31.6,25.7,57.4,57.4,57.4h295c31.6,0,57.4-25.7,57.4-57.4v-295
		C458.8,74.9,433.1,49.2,401.5,49.2z M442.5,401.5c0,22.6-18.4,41-41,41h-295c-22.6,0-41-18.4-41-41v-295c0-22.6,18.4-41,41-41h295
		c22.6,0,41,18.4,41,41V401.5z"/>
	<path d="M188.5,139.3c-27.1,0-49.2,22.1-49.2,49.2s22.1,49.2,49.2,49.2s49.2-22.1,49.2-49.2S215.6,139.3,188.5,139.3z M188.5,221.2
		c-18.1,0-32.8-14.7-32.8-32.8s14.7-32.8,32.8-32.8s32.8,14.7,32.8,32.8S206.5,221.2,188.5,221.2z"/>
	<path d="M319.5,139.3c-27.1,0-49.2,22.1-49.2,49.2s22.1,49.2,49.2,49.2s49.2-22.1,49.2-49.2S346.7,139.3,319.5,139.3z M319.5,221.2
		c-18.1,0-32.8-14.7-32.8-32.8s14.7-32.8,32.8-32.8c18.1,0,32.8,14.7,32.8,32.8S337.6,221.2,319.5,221.2z"/>
	<path d="M188.5,270.4c-27.1,0-49.2,22.1-49.2,49.2s22.1,49.2,49.2,49.2s49.2-22.1,49.2-49.2C237.6,292.4,215.6,270.4,188.5,270.4z
		 M188.5,352.3c-18.1,0-32.8-14.7-32.8-32.8c0-18.1,14.7-32.8,32.8-32.8s32.8,14.7,32.8,32.8C221.2,337.6,206.5,352.3,188.5,352.3z"
		/>
	<path d="M319.5,270.4c-27.1,0-49.2,22.1-49.2,49.2s22.1,49.2,49.2,49.2s49.2-22.1,49.2-49.2C368.7,292.4,346.7,270.4,319.5,270.4z
		 M319.5,352.3c-18.1,0-32.8-14.7-32.8-32.8c0-18.1,14.7-32.8,32.8-32.8c18.1,0,32.8,14.7,32.8,32.8
		C352.3,337.6,337.6,352.3,319.5,352.3z"/>
</g>
</svg>
