<?xml version="1.0" encoding="utf-8"?>
<!-- Generator: Adobe Illustrator 23.0.2, SVG Export Plug-In . SVG Version: 6.00 Build 0)  -->
<svg version="1.1" id="Layer_1" xmlns="http://www.w3.org/2000/svg" xmlns:xlink="http://www.w3.org/1999/xlink" x="0px" y="0px"
	 viewBox="0 0 508 508" style="enable-background:new 0 0 508 508;" xml:space="preserve">
<g>
	<path d="M254,0C113.9,0,0,113.9,0,254s113.9,254,254,254s254-113.9,254-254S394.1,0,254,0z M254,491.6C123,491.6,16.4,385,16.4,254
		S123,16.4,254,16.4S491.6,123,491.6,254S385,491.6,254,491.6z"/>
	<path d="M254,65.5C150.1,65.5,65.5,150.1,65.5,254S150.1,442.4,254,442.4S442.5,357.9,442.5,254S357.9,65.5,254,65.5z M254,426.1
		c-94.9,0-172.1-77.2-172.1-172.1S159.1,81.9,254,81.9S426.1,159.1,426.1,254S348.9,426.1,254,426.1z"/>
	<path d="M196.6,213c-22.6,0-41,18.4-41,41s18.4,41,41,41s41-18.4,41-41S219.2,213,196.6,213z M196.6,278.6
		c-13.6,0-24.6-11-24.6-24.6s11-24.6,24.6-24.6s24.6,11,24.6,24.6C221.2,267.6,210.2,278.6,196.6,278.6z"/>
	<path d="M311.4,213c-22.6,0-41,18.4-41,41s18.4,41,41,41s41-18.4,41-41S333.9,213,311.4,213z M311.4,278.6
		c-13.6,0-24.6-11-24.6-24.6s11-24.6,24.6-24.6s24.6,11,24.6,24.6C335.9,267.6,324.9,278.6,311.4,278.6z"/>
</g>
</svg>
