<?xml version="1.0" encoding="utf-8"?>
<!-- Generator: Adobe Illustrator 23.0.2, SVG Export Plug-In . SVG Version: 6.00 Build 0)  -->
<svg version="1.1" id="Layer_1" xmlns="http://www.w3.org/2000/svg" xmlns:xlink="http://www.w3.org/1999/xlink" x="0px" y="0px"
	 viewBox="0 0 87.4 31.1" style="enable-background:new 0 0 87.4 31.1;" xml:space="preserve">
<style type="text/css">
	.st0{stroke:#231F20;stroke-width:0.6484;stroke-miterlimit:10;}
</style>
<path d="M2,28.2l-0.5-0.5C10,19,14.8,9.5,14.9,9.4l0.6,0.3C15.4,9.8,10.6,19.4,2,28.2z"/>
<path d="M15.1,9.9c-0.2,0-4.1-1.1-5.2-7.3l0.6-0.1c1,5.8,4.7,6.8,4.7,6.8L15.1,9.9z"/>
<path d="M14.9,9.8c-0.1-0.2-3.3-4.6-2.1-7.9l0.6,0.2c-1.1,2.9,2,7.2,2,7.3L14.9,9.8z"/>
<path d="M14.9,9.7c0-0.2-1.2-4.4,1.9-9.4l0.6,0.3c-2.9,4.8-1.8,8.8-1.8,8.9L14.9,9.7z"/>
<path d="M15.4,9.9c-0.2,0-0.3,0-0.3,0l0-0.6c0,0,3.3,0.2,9-2.6l0.3,0.6C19.5,9.7,16.4,9.9,15.4,9.9z"/>
<path d="M15.5,9.7l-0.6-0.2c0-0.1,0.4-1,3.2-3.9L18.5,6C15.9,8.8,15.5,9.6,15.5,9.7z"/>
<path d="M21.4,12.5c-5,0-6.4-2.7-6.5-2.8l0.6-0.3l-0.3,0.1l0.3-0.1c0.1,0.1,1.5,2.8,7.1,2.4l0,0.6C22.2,12.5,21.8,12.5,21.4,12.5z"
	/>
<path d="M20,10.1c-2.7,0-4.8-0.3-4.9-0.3l0.1-0.6c0.1,0,5.6,0.7,10.4-0.2l0.1,0.6C23.8,10,21.8,10.1,20,10.1z"/>
<path d="M58,26.6L57.9,26c14.4-2.5,21.4-3.1,21.5-3.1l0,0.6C79.3,23.6,72.3,24.1,58,26.6z"/>
<path d="M79.1,23.3c0-0.1-0.9-3.3,2.3-7.9l0.5,0.4c-3,4.3-2.2,7.3-2.2,7.4L79.1,23.3z"/>
<path d="M79.7,23.3l-0.6-0.1c0-0.2,0.9-5.1,6.5-7.9l0.3,0.6C80.6,18.5,79.7,23.2,79.7,23.3z"/>
<path d="M79.7,23.4l-0.5-0.4c0-0.1,1.1-1.7,5.2-3.3l0.2,0.6C80.7,21.9,79.7,23.4,79.7,23.4z"/>
<path d="M87.1,28.9c-4.7-2.3-7.9-5.4-8-5.4l0.4-0.5c0,0,3.2,3.1,7.8,5.3L87.1,28.9z"/>
<path d="M84.6,25.4c-2.8-1.8-5.2-1.8-5.2-1.8v-0.6c0.1,0,2.7,0,5.6,1.9L84.6,25.4z"/>
<path d="M83.9,31.1c-4.9-3.8-4.9-7.7-4.9-7.8l0.6,0c0,0,0,3.7,4.6,7.3L83.9,31.1z"/>
<path d="M85.6,30.1c-6.3-4-6.5-6.8-6.5-6.9l0.6,0c0,0,0.3,2.6,6.2,6.4L85.6,30.1z"/>
<path d="M79.1,23.4c-0.1-0.1-2.4-3.3-0.5-8.1l0.6,0.2C77.5,20,79.6,23,79.7,23L79.1,23.4z"/>
<path d="M81.4,31c-4.3-3.8-2.8-7.1-2.4-7.9c-0.2-0.9-1.3-6,2.5-10.1l0.5,0.4c-3.9,4.2-2.3,9.6-2.3,9.6l0,0.2l-0.1,0.1
	c-0.1,0.1-2.2,3.2,2.2,7.1L81.4,31z"/>
<path d="M0.6,29.9C0.2,29.8,0,29.6,0,29.6c-0.2-0.8,0.5-1.3,1.5-2.4c0.7-0.8,2-1.3,3.6-3.3c0.7-0.4,1.3-0.6,0.4,0.4
	c-2.5,2.7-2,2.9-3,4C1.8,29.1,1.1,29.9,0.6,29.9z"/>
<path d="M55.4,27c-0.2-0.3-0.2-0.6-0.2-0.6c0.3-0.8,1.3-0.7,2.7-0.9c1.1-0.2,2.4,0.2,4.9-0.2c0.8,0.1,1.3,0.4,0,0.6
	c-3.6,0.5-3.4,1-4.9,1.2C56.9,27.2,55.8,27.3,55.4,27z"/>
<path d="M33.4,20L33,19.4c9.5-5.6,17.1-10.5,17.2-10.6l0.4,0.5C50.5,9.4,42.8,14.3,33.4,20z"/>
<path d="M50.2,9.4c-0.1-0.1-2.5-2.2-2.4-4.9c0.1-1.6,1-3.1,2.9-4.4L51,0.5c-1.7,1.2-2.5,2.5-2.6,3.9c-0.1,2.4,2.1,4.4,2.2,4.4
	L50.2,9.4z"/>
<path d="M50.1,9.3c0,0-2.8-4.4,0.9-7.8L51.5,2c-3.3,3-0.9,6.8-0.8,6.9L50.1,9.3z"/>
<path d="M50.7,9.1l-0.6,0c0-0.2,0-3.7,4.3-7.3l0.4,0.5C50.8,5.7,50.7,9.1,50.7,9.1z"/>
<path d="M50.5,9.4l-0.1-0.6c0,0,2.2-0.5,5.3-2l0.3,0.6C52.7,8.9,50.5,9.4,50.5,9.4z"/>
<path d="M50.7,9.3L50.1,9c0.1-0.1,1.4-2.4,3.6-3.5L54,6C51.9,7,50.7,9.2,50.7,9.3z"/>
<path d="M59.3,13.8c-5.9-0.6-9-4.4-9.1-4.5l0.5-0.4c0,0,3.1,3.7,8.7,4.3L59.3,13.8z"/>
<path d="M54.6,10.3c-3.6,0-4.4-0.9-4.5-1l0.5-0.4c0,0,1.3,1.4,8.1,0.5l0.1,0.6C57.1,10.2,55.7,10.3,54.6,10.3z"/>
<path class="st0" d="M50.4,9.1"/>
<path d="M59,16.6c-7.8-1.2-9-7.4-9-7.4l0.6-0.1c0,0.2,1.1,5.8,8.4,6.9L59,16.6z"/>
<path d="M31.1,21.2c-0.3-0.2-0.4-0.5-0.4-0.5c0-0.9,0.9-1.1,2.1-1.9c0.9-0.6,2.3-0.7,4.5-2.1c0.8-0.2,1.4-0.2,0.3,0.5
	c-3.2,1.9-2.8,2.2-4.1,2.9C32.6,20.8,31.6,21.4,31.1,21.2z"/>
</svg>
