<?xml version="1.0" encoding="utf-8"?>
<!-- Generator: Adobe Illustrator 23.0.2, SVG Export Plug-In . SVG Version: 6.00 Build 0)  -->
<svg version="1.1" xmlns="http://www.w3.org/2000/svg" xmlns:xlink="http://www.w3.org/1999/xlink" x="0px" y="0px"
	 viewBox="0 0 100 125" style="enable-background:new 0 0 100 125;" xml:space="preserve">
<g id="Layer_2">
</g>
<g id="Layer_1">
	<path d="M26.1,43.4C26.1,43.4,26.1,43.4,26.1,43.4c-0.2-0.2-0.5,0-0.5,0.1c0,0.2,0.2,0.3,0.4,0.2c0,0,0.1,0,0.1-0.1c0,0,0,0,0,0
		C26.3,43.6,26.3,43.5,26.1,43.4C26.1,43.4,26.1,43.4,26.1,43.4z"/>
	<path d="M25,40.7c-0.1,0-0.1,0.2,0,0.2c0.1,0,0.3,0.1,0.4,0.1c0.1,0,0.1,0,0.1-0.1c0,0,0-0.1,0-0.1c0-0.1-0.1-0.1-0.1-0.1
		C25.3,40.7,25.2,40.7,25,40.7z"/>
	<path d="M29.4,41c-0.2,0.1-0.3,0.4-0.1,0.5c0.1,0.1,0.3,0,0.4-0.2C29.8,41.1,29.6,41,29.4,41z"/>
	<path d="M24.2,45.1C24.2,45.1,24.2,45.1,24.2,45.1c-0.1,0-0.1,0-0.2,0.1c0,0-0.1,0.1-0.1,0.1c0,0,0,0,0,0c0,0,0,0,0,0
		c-0.1,0-0.2,0.1-0.2,0.2c0,0.1,0.1,0.2,0.2,0.2c0.1,0,0.2,0,0.3-0.1c0,0,0.1-0.1,0.2-0.1c0.1,0,0.3-0.1,0.3-0.3
		C24.7,45.1,24.5,44.9,24.2,45.1z"/>
	<path d="M28.6,45.6c-0.1-0.1-0.2-0.1-0.4-0.2c-0.1,0-0.2,0-0.4,0c-0.1,0-0.1,0.2-0.1,0.2c-0.1,0-0.3,0.1-0.4,0.2
		c-0.1,0,0,0.1,0.1,0.1c0.1,0,0.3-0.1,0.4-0.1c0,0,0.1,0,0.1,0c0,0,0,0,0.1,0c0.1,0,0.1,0,0.2,0.1c0.1,0,0.1,0,0.2-0.1c0,0,0,0,0,0
		C28.7,45.8,28.8,45.6,28.6,45.6z"/>
	<path d="M31.3,40.8c0.2,0,0.3-0.2,0.2-0.4c0,0-0.1,0-0.1,0c0,0.1,0,0.2-0.1,0.2C31.2,40.6,31.2,40.8,31.3,40.8z"/>
	<path d="M21,46c-0.1-0.2-0.5-0.1-0.5,0.1s0.4,0.4,0.5,0.1c0,0.1,0,0,0,0C21.1,46.2,21.1,46,21,46C21,46,21,45.9,21,46z"/>
	<path d="M30.9,48.1c-0.3,0-0.6,0.2-0.6,0.5c0,0,0,0,0,0.1c0.2,0.1,0.5,0.1,0.7,0.1c0.2,0,0.5,0,0.6-0.2c0.1-0.1,0.1-0.1,0-0.2
		C31.4,48.2,31.2,48.1,30.9,48.1z"/>
	<path d="M30.6,44.1c0.3,0.1,0.7,0.1,0.9-0.1c0.1-0.1,0.1-0.3,0-0.4c0,0,0,0,0-0.1c0,0,0,0,0,0c0,0,0-0.1,0-0.1c0-0.1-0.1-0.1-0.1,0
		c0,0,0,0,0,0.1c-0.2-0.1-0.5-0.1-0.8,0C30.3,43.6,30.3,44.1,30.6,44.1z"/>
	<path d="M16.7,45.2C16.7,45.2,16.6,45.2,16.7,45.2c0-0.1-0.1-0.2-0.1-0.3c-0.1-0.2-0.3-0.1-0.4,0c0,0-0.1,0-0.1,0
		c-0.1,0-0.1,0.1,0,0.1c0,0,0,0,0.1,0c0,0.1,0,0.2,0.1,0.3c0.1,0.1,0.2,0.1,0.3,0.2c0.1,0.1,0.3-0.1,0.2-0.2
		C16.8,45.4,16.7,45.3,16.7,45.2z"/>
	<path d="M20.7,42.1c0.1,0.1,0.2-0.1,0.1-0.2c-0.2-0.2-0.6-0.3-0.9-0.2c-0.1,0-0.1,0.1,0,0.2c0.1,0.1,0.2,0.1,0.4,0.1
		C20.5,42,20.6,42,20.7,42.1z"/>
	<path d="M13.7,44.3C13.7,44.3,13.7,44.3,13.7,44.3C13.7,44.3,13.7,44.3,13.7,44.3c-0.1-0.1-0.2-0.1-0.3-0.1c-0.2,0-0.3,0.3-0.1,0.4
		c0.1,0,0.1,0.1,0.1,0.2c0,0.1,0.2,0.1,0.2,0c0-0.1,0-0.1,0-0.2c0.1,0,0.1-0.1,0.1-0.1C13.9,44.4,13.8,44.3,13.7,44.3z"/>
	<path d="M37.2,48.2c-0.1,0-0.1,0-0.2,0c-0.1,0-0.1,0.1-0.1,0.2c0,0.2-0.1,0.2-0.2,0.4c-0.1,0.1,0,0.2,0.1,0.2
		c0.1,0,0.1-0.1,0.2-0.1c0,0.1,0,0.1,0,0.2c0,0.2,0,0.4,0,0.5c0,0.1,0.1,0.1,0.1,0.1c0.3-0.2,0.3-0.8,0.3-1.1
		C37.4,48.2,37.3,48.2,37.2,48.2z"/>
	<path d="M36.5,40.5c-0.1-0.1-0.1-0.2-0.2-0.3c0-0.1-0.1-0.1-0.1-0.2c-0.1-0.1-0.2,0-0.2,0.1C36.2,40.3,36.3,40.4,36.5,40.5
		C36.5,40.6,36.5,40.5,36.5,40.5z"/>
	<path d="M37.4,45.2c-0.2-0.1-0.3-0.2-0.5-0.2c-0.2,0-0.4,0.1-0.5,0.3c0,0.1-0.1,0.3,0.1,0.3c0.1,0,0.3-0.1,0.5-0.1
		c0.2,0,0.5,0.2,0.7,0.2c0.1,0,0.1,0,0.1-0.1C37.7,45.5,37.5,45.3,37.4,45.2z"/>
	<path d="M35.5,50.6c-0.1,0-0.2,0.1-0.3,0.1c-0.1,0-0.1,0.1,0,0.2c0,0.1-0.1,0.1-0.1,0.2c0,0.1,0,0.2,0,0.3c0,0.1,0.1,0.2,0.2,0.2
		c0.1,0,0.2-0.1,0.2-0.2c0-0.1,0-0.1,0.2-0.2c0.1-0.1,0.1-0.1,0.1-0.2c0-0.1,0-0.2-0.1-0.2C35.7,50.6,35.6,50.5,35.5,50.6z"/>
	<path d="M34.3,41.5c0.1,0,0.1-0.2,0-0.2c0,0-0.1,0-0.1,0c-0.1,0-0.1,0.1,0,0.1C34.2,41.5,34.3,41.5,34.3,41.5z"/>
	<path d="M38,42.4C38,42.4,38,42.4,38,42.4C38,42.4,38,42.4,38,42.4c-0.2,0.2-0.5,0.3-0.8,0.2c-0.1,0-0.1,0.1-0.1,0.2
		c0.1,0.1,0.3,0.2,0.5,0.2c0.2,0,0.4-0.2,0.6-0.3C38.4,42.5,38.2,42.2,38,42.4z"/>
	<path d="M34.4,41.7C34.4,41.7,34.4,41.7,34.4,41.7c-0.2,0-0.3,0-0.4-0.1c-0.1-0.1-0.2,0.1-0.1,0.1C34,42,34.2,42,34.4,41.7z"/>
	<path d="M34.1,50.3c0.1,0.1,0.1,0.1,0.2,0c0.1-0.2,0.1-0.5-0.1-0.6c-0.1-0.1-0.2-0.1-0.3-0.2c-0.2-0.1-0.3,0-0.4,0.1
		c-0.1,0-0.1,0.1-0.1,0.1c0,0,0,0,0,0c-0.1,0.1,0,0.2,0.1,0.2c0,0,0,0,0,0c0,0,0,0,0,0c0,0,0.1,0,0.2,0c0.1,0,0.2,0,0.2,0
		C34,50.1,34.1,50.3,34.1,50.3z"/>
	<path d="M34.6,45.3c-0.1,0-0.3,0-0.4,0.1c-0.1,0-0.1,0.2,0,0.2c0.1,0,0.3,0.1,0.4,0.1C34.9,45.7,34.9,45.3,34.6,45.3z"/>
	<path d="M34.4,52.7C34.4,52.6,34.4,52.6,34.4,52.7c0-0.1-0.1-0.1-0.1-0.1c0,0,0,0,0,0c-0.1-0.1-0.4-0.1-0.5,0.1
		c0,0.3,0.2,0.5,0.4,0.4c0.1,0,0.1,0,0.2-0.1C34.5,52.9,34.5,52.8,34.4,52.7C34.5,52.7,34.5,52.7,34.4,52.7z"/>
	<path d="M61,39.1C60.9,39,60.9,39.2,61,39.1L61,39.1z"/>
	<path d="M98.7,33.9l-3.8-18.7l-0.1-0.5l-0.5,0.1c-5.3,1.5-8.9,2.3-11.9,3c-3.8,0.9-6.3,1.5-9.4,2.7c-3.2-3.4-8.2-5.8-17.5-5.8
		c-19.4,0-41,20.9-47.7,24c-5.1,2.4-2.1,7.9,2.1,8.7c4.2,0.8,9.7,2.2,16.1,2.6c4.7,0.3,6.9,1.8,7.7,3.8C35.9,60,50,64,55.1,60.8
		c7.7-4.9,11.3-4.6,16.3-8.9c2.3-1.9,11-3.8,13.9-9.5c0.9-1.7,1.2-3.6,1.3-5.4c6.1-1.8,11.6-2.4,11.7-2.5l0.5-0.1L98.7,33.9z
		 M85.3,41.3c-1.3,2.6-4,4.7-7.7,6.9c-1.2,0.7-2.8,1.2-4.3,1.6c-1.4,0.3-4.2,3.7-5.3,4c-5.4,1.4-10.2,5.7-16,6.9
		c-5.8,1.1-16.6-3.6-17.8-6c-0.5-3.7-4.3-4.4-8.9-4.8c-5.2-0.5-10.6-2.2-14.8-3c-3.3-0.6-5.2-3.6-4.3-5.4c0.9-1.8,5.1-3.1,6.2-4.1
		c14.7-13.2,29.5-22,43-22c9,0,13.7,2.2,16.9,5.5c-0.5,0.2-1.1,0.4-1.7,0.7c-0.2-0.2-0.4-0.3-0.5-0.5c-0.5-0.3-1.1-0.5-1.6-0.3
		c-0.5,0.2-0.8,0.2-1,0.2c-0.2,0-0.6,0.7-1,0.8c-0.4,0.1-0.9,1.4-1.1,1.4s-0.3-0.4-0.6-0.4c-0.3,0-0.5,0.4-0.8,0.5
		c-0.3,0.1-0.1,0.4-0.3,0.7c-0.1,0.3,0.2,0.7,0.2,1.2c0,0.5-0.5,1.9-0.9,3.1c-0.4,1.2-0.7,2.2-1,2.8s0.2,0.1-0.4,0.7
		c-0.6,0.6-0.5,0.8,0,1.3c0.5,0.5,1.1,2.2,1,3c-0.1,0.8-0.1,0.5-0.5,1.1c-0.3,0.6-0.3,0.3-0.6,0.6c-0.3,0.3-0.6,0.4-0.6,1.2
		c0,0.3,0,0.3-0.1,0.4c0,0,0,0.1,0.1,0.1c0.3,0.5,0.1,0.4,0,0.7c-0.1,0.3-0.2,0.6-0.4,0.8c-0.3,0.2-1.9,1.3-2.5,1.4
		c-0.6,0.1-0.8,0.5-1.3,0.5s-0.8,0.1-1,0.3c-0.2,0.3-0.8,0.5-1.1,0.8s-0.2,0.3-1,1c-0.9,0.8-1.5,0.7-2.8,2c-1.3,1.3-1.2,3-1.8,3.7
		c-0.6,0.7,0,1.6-0.2,2.8c-0.2,1.2-0.2,1.9-0.6,2.4c-0.4,0.5-0.6,1.3-0.6,2.2c0,0.9,1.2,1.2,2,1.8c0.8,0.5,2.9,0.1,4.1-0.6
		c1.1-0.7,4-2.1,5.1-2.6c1.1-0.5,1.3-0.2,2-0.7c0.7-0.6,1-0.6,1.9-1.2c0.9-0.6,1.3-0.8,2.5-0.9s1.8-0.7,2.2-1.2
		c0.5-0.5,1.5-0.9,1.8-1.4c0.3-0.5,1.2-1.2,2.9-1.8c1.7-0.5,3-0.4,3.8-1.1c0.8-0.7,2.7-1.3,3.3-1.7c0.6-0.4,2.2-1.8,2.8-2.4
		c0.6-0.6,2-1.2,2.2-2.4c0.1-0.6,0.8-1.2,1-2.6c0.1-0.6-0.1-1-0.2-1.5c0.3-0.1,0.5-0.2,0.8-0.3C85.9,38.6,86.1,39.6,85.3,41.3z
		 M77.8,39.9c-7.1,3.9-8.6,11-28.5,13.7c0-0.2,0.1-0.4,0.1-0.5c0.3-1.2-0.4-2,0.2-2.7c0.6-0.7-0.1-1.8,1.3-3.1
		c1.4-1.3,2.1-1.2,3.1-1.9c0.9-0.7,0.8-0.7,1.1-1c0.3-0.3,0.9-0.6,1.2-0.8c0.3-0.3,0.5,0,1.1,0c0.5,0.1,0.8-0.4,1.4-0.5
		c0.6-0.1,2.3-1.3,2.6-1.6c0.3-0.3,0.4-0.6,0.5-1c0.1-0.4,0.3-0.2,0-0.8c0-0.1-0.1-0.1-0.1-0.1c0,0-0.1-0.2,0,0c0,0,0.1-0.1,0.1-0.4
		c0-0.9,0.3-1,0.6-1.4c0.3-0.4,0.3,0,0.6-0.7s0.4-0.4,0.5-1.3c0.1-0.9-0.6-2.3-1.1-2.8s-0.8-0.9-0.2-1.5c0.6-0.6,0.1-0.2,0.4-0.7
		c0.3-0.5,0.6-1.6,1-2.8c0.1-0.2,0.2-0.5,0.2-0.7c2.5-2.3,4.4-4.3,6.9-5.4c6.9-2.9,10-2.9,23.7-6.7L98.2,34
		C98.2,34,86.2,35.3,77.8,39.9z"/>
	<g>
		<g>
			<path d="M43.3,84.8C43.3,84.8,43.3,84.8,43.3,84.8L43.3,84.8C43.3,84.8,43.3,84.8,43.3,84.8c0-0.2-0.1-0.3-0.1-0.4
				c0-0.2-0.4-0.3-0.4,0c0,0.1,0,0.1,0,0.2c0,0,0,0,0,0.1c0,0,0,0,0,0c-0.2-0.2-0.4,0.1-0.4,0.3c0,0,0,0,0,0c0,0.1,0,0.2,0.1,0.2
				c0,0,0.1,0,0.1,0c0,0,0,0,0,0c0.1,0,0.2,0,0.2,0C43.2,85.3,43.4,85,43.3,84.8z"/>
		</g>
	</g>
	<g>
		<g>
			<path d="M43.4,87.6c0-0.1-0.1-0.1-0.1-0.1c-0.1,0-0.2,0-0.2,0.1c0,0.1,0,0.1,0,0.2c0,0.1,0,0.1,0,0.2c0,0,0,0,0,0
				c0,0,0,0.1,0,0.1c0,0.1,0.1,0.1,0.1,0c0.1,0,0.2,0,0.3-0.1C43.5,87.9,43.4,87.8,43.4,87.6z"/>
		</g>
	</g>
	<g>
		<g>
			<path d="M40.8,88.6c-0.1,0-0.1,0.1,0,0.2c0.1,0,0.1,0.1,0.1,0.1c0,0-0.1,0-0.1,0c-0.1,0-0.1,0.1,0,0.1c0,0,0.1,0,0.1,0.1
				c0,0,0,0,0,0c0,0,0.1,0,0.1,0c0.1,0,0.2-0.1,0.2-0.1C41.3,88.7,41.1,88.5,40.8,88.6z"/>
		</g>
	</g>
	<g>
		<g>
			<path d="M46.8,87.3c-0.1,0-0.3,0-0.4,0c-0.1,0-0.1,0.1-0.2,0.1c-0.1,0-0.2,0-0.3,0c0,0,0,0.1,0,0.1c0.1,0,0.2,0,0.3,0
				c0,0,0,0-0.1,0.1c-0.1,0.1,0,0.2,0.1,0.1c0.2-0.1,0.4-0.2,0.6-0.2C46.9,87.5,46.9,87.3,46.8,87.3z"/>
		</g>
	</g>
	<g>
		<g>
			<path d="M44.1,88.4c-0.1,0-0.2-0.1-0.3,0c-0.1,0-0.2,0.1-0.2,0.2c0,0,0,0.1,0.1,0.1c0.1,0,0.2,0,0.3,0c0,0.1,0,0.1,0,0.2
				c0,0.1,0.1,0.1,0.2,0c0-0.1,0-0.2,0-0.3C44.2,88.5,44.2,88.4,44.1,88.4z"/>
		</g>
	</g>
	<g>
		<g>
			<path d="M46.4,85.5c0,0-0.1,0-0.1,0c0,0-0.1,0-0.2-0.1c-0.2,0-0.2,0.3,0,0.3c0.1,0,0.1,0,0.2,0c0,0,0.1,0,0.1,0
				C46.5,85.8,46.6,85.5,46.4,85.5z"/>
		</g>
	</g>
	<g>
		<g>
			<path d="M34.9,88.3c-0.1-0.1-0.2-0.1-0.3-0.1c-0.1,0-0.1,0.2,0,0.2c0,0,0.1,0,0.1,0c0,0,0,0.1,0.1,0.1c0,0,0.1,0,0.1,0
				C35,88.5,35,88.4,34.9,88.3z"/>
		</g>
	</g>
	<g>
		<g>
			<path d="M24.7,85c-0.1,0-0.3-0.1-0.4,0c0,0,0,0,0,0.1c0.1,0.2,0.3,0.1,0.4,0.1C24.8,85.1,24.8,85,24.7,85z"/>
		</g>
	</g>
	<g>
		<g>
			<path d="M34.5,88.4c-0.1,0-0.1,0.1,0,0.1C34.6,88.5,34.6,88.4,34.5,88.4z"/>
		</g>
	</g>
	<g>
		<g>
			<path d="M47.1,89.1c-0.2,0-0.3,0-0.5-0.1c-0.1,0-0.2,0-0.3,0c0,0-0.1,0-0.1,0c-0.1,0-0.1,0.1,0,0.1c0,0,0.1,0,0.1,0.1
				c0.1,0.1,0.1,0.1,0.3,0.1c0.1,0,0.1,0,0.2,0c0,0.1,0,0.2,0,0.3c0,0.1,0.1,0.2,0.2,0.2c0.1,0,0.1,0,0.2,0c0.1,0,0.1-0.1,0.1-0.1
				c0-0.1,0-0.2,0.1-0.3C47.3,89.3,47.2,89.1,47.1,89.1z"/>
		</g>
	</g>
	<g>
		<g>
			<path d="M29.8,85.1c-0.3-0.2-0.7-0.2-1-0.4c-0.4-0.1-0.7-0.4-1.1-0.4c-0.6,0.1-0.9,0.8-1.5,0.3c-0.1-0.1-0.2,0.1-0.1,0.2
				c0.4,0.3,0.7,0.3,1.1,0c0.4-0.3,0.6-0.4,1.2-0.2C28.8,84.9,29.3,84.9,29.8,85.1C29.8,85.2,29.8,85.1,29.8,85.1z"/>
		</g>
	</g>
	<g>
		<g>
			<path d="M25.4,84.8c-0.1,0-0.1-0.1-0.2,0c-0.1,0-0.1,0.1,0,0.2c0-0.1,0,0,0,0.1c0,0,0.1,0,0.1,0c0,0,0,0,0,0c0,0,0.1,0,0.1,0
				C25.5,85,25.5,84.8,25.4,84.8z"/>
		</g>
	</g>
	<g>
		<g>
			<path d="M38.4,87c-0.1-0.1-0.3-0.1-0.4,0c-0.1,0-0.2,0.2-0.2,0.3c0,0.1,0.1,0.1,0.2,0c0-0.1,0-0.2,0.1-0.2c0.1,0,0.2,0.1,0.3,0
				C38.5,87.1,38.5,87,38.4,87z"/>
		</g>
	</g>
	<g>
		<g>
			<path d="M70.3,76.8c-0.1,0-0.2-0.1-0.3,0c-0.1,0-0.1,0.1-0.1,0.2c0,0,0.1,0,0.1,0c0,0,0,0,0.1,0c0.1,0,0.1,0,0.2,0
				C70.4,77,70.4,76.8,70.3,76.8z"/>
		</g>
	</g>
	<g>
		<g>
			<path d="M64,88.3c0,0-0.1,0-0.1,0c0,0-0.1,0-0.1,0c0,0,0,0,0,0.1c-0.1-0.1-0.1-0.1-0.2-0.1c0,0,0,0.1,0,0.1
				c0.1,0,0.1,0.1,0.2,0.1c0,0.1,0.2,0.1,0.2,0C63.9,88.4,63.9,88.4,64,88.3C64,88.4,64,88.3,64,88.3z"/>
		</g>
	</g>
	<g>
		<g>
			<path d="M61.3,84.8c-0.1,0-0.3-0.1-0.4-0.1c-0.1,0-0.2,0-0.2,0.1c0,0,0,0,0,0c0,0,0,0,0,0c0,0,0,0-0.1,0.1c0,0,0,0.1,0,0.1
				c-0.2,0-0.4,0.1-0.6,0.2c-0.2,0.1-0.1,0.3,0.1,0.3c0.5,0,0.9-0.2,1.2-0.5C61.4,84.9,61.4,84.8,61.3,84.8z"/>
		</g>
	</g>
	<g>
		<g>
			<path d="M61.6,88.4c-0.1,0-0.3,0.2-0.2,0.3c0,0.1,0.1,0.1,0.1,0.1c0,0,0,0,0,0c0,0,0,0,0.1,0c0,0,0,0,0,0c0,0,0.1,0,0.1,0
				c0.1-0.1,0.1-0.1,0.1-0.2C61.8,88.4,61.7,88.4,61.6,88.4z"/>
		</g>
	</g>
	<g>
		<g>
			<path d="M64.1,84.7c0,0.1,0,0.1,0,0.2c0,0.1,0.1,0.1,0.1,0.1c0,0,0,0,0,0c0,0.1,0.1,0.1,0.1,0c0,0,0,0,0,0c0.1,0,0.1,0,0.1-0.1
				c0,0,0-0.1,0-0.2C64.5,84.5,64.1,84.5,64.1,84.7z"/>
		</g>
	</g>
	<g>
		<g>
			<path d="M69,81.1c-0.2,0-0.4,0-0.5,0.2c0,0,0,0,0,0c0,0,0,0-0.1,0c-0.1,0-0.2,0-0.3,0c-0.1,0-0.1,0.1,0,0.1c0,0,0.1,0,0.1,0
				c0,0,0,0,0,0c0,0,0,0,0,0c0,0.1,0,0.2,0.2,0.2c0.3,0,0.6-0.1,0.7-0.4C69.1,81.1,69,81,69,81.1z"/>
		</g>
	</g>
	<g>
		<g>
			<path d="M67,84.2c0,0-0.1,0.1-0.1,0.1c0,0,0,0-0.1,0c0,0-0.1,0-0.1,0c-0.1,0-0.1,0-0.1,0.1c0,0,0,0.1,0.1,0.1
				c0.1,0,0.1,0.1,0.2,0.1c0.1,0,0.3,0,0.4-0.1C67.4,84.4,67.2,84,67,84.2z"/>
		</g>
	</g>
	<g>
		<g>
			<path d="M68.9,84.5C68.9,84.5,68.9,84.6,68.9,84.5c-0.2,0.1-0.3,0.2-0.4,0.3c0,0,0,0.1,0.1,0.1c0.1,0,0.2-0.1,0.3-0.2
				C69,84.7,69.1,84.6,68.9,84.5z"/>
		</g>
	</g>
	<g>
		<g>
			<path d="M62.4,83.7c0-0.1-0.1-0.2-0.1-0.3c-0.1-0.2-0.4-0.2-0.6-0.2c-0.2,0-0.2,0.4,0,0.4c0.2,0.1,0.3,0,0.5,0.1c0,0,0,0,0,0
				c-0.1,0-0.2,0.2-0.1,0.2c0.1,0.1,0.2,0.1,0.3,0c0.1,0,0.1-0.1,0.1-0.2C62.4,83.7,62.4,83.7,62.4,83.7z"/>
		</g>
	</g>
	<g>
		<g>
			<path d="M61.1,87.3c-0.1,0-0.1,0-0.2,0c0,0-0.1,0.1-0.1,0.1c-0.1,0-0.1,0.2,0,0.2c0.1,0,0.1,0,0.2,0c0,0,0.1-0.1,0.1-0.1
				C61.1,87.5,61.2,87.3,61.1,87.3z"/>
		</g>
	</g>
	<g>
		<g>
			<path d="M75.9,66.1c-5-3.9-6.6-3.8-11.5-3.1c-1.4,0.2-18.9,6-21.5,8.1c-0.4,0.3-3.9,3.2-6.3,4.7c-3.3,2.1-11.9,5.8-13.7,7.6
				c-0.2,0.2-0.4,0.5-0.6,0.7l0,0c-1.1,1.1-1.1,2.4-0.8,3.6c0.1,0.7,0.9,1.5,1.2,1.7c0.3,0.4,0.5,0.8,0.7,1c0.8,1,0.6,0.7,2,1.5
				c1.3,0.8,0.9,0.5,3.2,1c2.3,0.5,0,0,1.8,0.4c1.8,0.4,1,0.2,1.8,0.6c0.7,0.4,1.5,0.9,2.6,0.4c1.1-0.5,1.9-0.1,2.7-0.3
				c0.9-0.2,2.6-0.9,4-0.6c1.4,0.3,0.3,0.6,0.8,0.7c0.5,0.1,0.9,0.5,0.9-0.2c0-0.7,0.4,0.2,1.1-0.7c0,0,0,0,0,0
				c0.1,0.2,0.4,0.3,1,0.5c0.2,0.1,0.4,0.1,0.6,0.1c0.3,0.3,0.5,0.6,0.6,0.7c0.5,0.3,1.1,0.2,3,0.1c1.9-0.1,2.2-0.5,5.1-1.1
				c0.1,0,0.3,0,0.4-0.1c0.7,0,1.7,0,2.2,0.2c0.8,0.2,1.2-0.3,1.6-0.9c0.5-0.6-0.2-0.2,0.5-0.6c0.7-0.3,0-0.5,1.3-0.3
				c1.2,0.3,1.2,0.8,1.9,0.3c0.7-0.5,0.2,0,0.7-0.5c0.3-0.2,0.1-0.5,0.5-0.5c1.5,0-0.1-0.4,0.9-0.3c0.9,0.1,0.6,0.3,0.9,0.1
				c0.8-0.6-0.1-0.9,1.2-1.2c1.3-0.4,1.8-0.1,1.8-0.1l0.5,0l0.6-0.6l0.4-0.5l0.5-0.6c0,0,0.2,0.4,0.7,0c0.5-0.4,0.4,0.2,0.6-0.5
				c0.2-0.7,0.1-1.3,0.3-1.8c0.2-0.5,0.9-0.4,1.1-0.7c0.2-0.3,0.3-0.4,0.5-0.8c0.4-0.9-0.6-3.4,2.1-3.9C79.4,79.2,80.9,70,75.9,66.1
				z M75.5,79.7c-2.7,0.5-1.7,2.8-2.1,3.7c-0.2,0.4-0.3,0.5-0.5,0.8c-0.2,0.3-0.9,0.2-1.1,0.7c-0.2,0.5-0.1,1-0.3,1.7
				c-0.2,0.6-0.2,0.1-0.6,0.4s-0.7,0-0.7,0l-0.5,0.6l-0.4,0.5l-0.6,0.5l-0.5,0c0,0-0.5-0.2-1.8,0.2c-1.3,0.4-0.4,0.6-1.2,1.2
				c-0.3,0.2,0,0-1-0.1c-0.9-0.1,0,0-1.5,0c-0.4,0-0.2,0.2-0.6,0.4c-0.6,0.4,0,0-0.8,0.4c-0.8,0.4-0.6-0.1-1.8-0.4
				c-1.1-0.3-0.5-0.1-1.3,0.2c-0.8,0.3,0,0-0.6,0.5c-0.6,0.5-1.1,1-1.8,0.8c-0.7-0.2-2.5-0.3-3.1-0.3c-0.5,0-1.3-0.1-1.9,0.2
				c-0.7,0.3-0.8,0-1.6-0.6c-0.8-0.6-0.7-0.6-1.5-0.5c-0.9,0.1-2.1,1.3-3.5,0.8c-1.4-0.5-0.7-0.8-0.9-1.3c-0.3-0.5-0.7-0.2-1.4-0.2
				c-0.7,0.1-1-0.3-1.5-0.6c-0.5-0.3-0.8-0.8-1.8-0.7c-1,0.1,0,0-0.8,0.1c-0.8,0.1-2.3,0.7-4.2,0.7s-3.5-2.7-4.9-3
				c-1.5-0.2-2-1.1-2.6-0.4c-0.6,0.6,0.2-0.7-2.1,0.2c-2.4,0.9-2-0.9-0.1-2.7c1.8-1.7,9.3-4.7,12.6-6.8c2.5-1.6,5.3-3.8,5.7-4.1
				c2.6-2.1,20.3-8.9,21.7-9.1c4.9-0.8,6.6-1,11.6,2.9C80.5,70.3,79.2,78.4,75.5,79.7z"/>
		</g>
	</g>
	<g>
		<g>
			<path d="M49.1,86.3c-0.4,0-0.8,0.1-1.2,0.2c-0.1,0,0,0.1,0,0.1c0.3-0.1,0.5-0.1,0.8-0.1c0,0,0,0,0,0c0,0.2,0.3,0.2,0.4,0.1
				c0.1-0.1,0.1-0.1,0.1-0.2C49.2,86.4,49.2,86.3,49.1,86.3z"/>
		</g>
	</g>
	<g>
		<g>
			<path d="M73.1,81.4c-0.1,0-0.2,0-0.2,0c0,0-0.1,0-0.1,0c-0.1,0-0.1,0.1-0.1,0.2c0,0,0,0,0,0c0,0,0,0.1,0,0.1
				c0.1,0.2,0.3,0.1,0.5,0C73.3,81.6,73.3,81.4,73.1,81.4z"/>
		</g>
	</g>
	<g>
		<g>
			<path d="M77.3,75.4c-0.1,0-0.1-0.1-0.2-0.1c-0.2,0-0.2,0.2,0,0.3c0.1,0,0.1,0,0.2,0C77.5,75.7,77.5,75.5,77.3,75.4z"/>
		</g>
	</g>
	<g>
		<g>
			<path d="M77.7,73.4c0,0.1,0,0.2,0,0.3c0,0.3,0.4,0.4,0.4,0.1c0-0.1,0-0.2,0-0.3C78.1,73.3,77.8,73.2,77.7,73.4z"/>
		</g>
	</g>
	<g>
		<g>
			<path d="M59.9,88.7c-0.1,0-0.2,0.1-0.1,0.2c0,0,0,0.1,0.1,0.1c0,0,0.1,0,0.1,0c0,0,0.1-0.1,0.1-0.1C60.1,88.9,60,88.7,59.9,88.7z
				"/>
		</g>
	</g>
	<g>
		<g>
			<path d="M75.3,78.6c-0.3-0.1-0.8-0.2-1,0.2c-0.1,0.1,0.1,0.3,0.2,0.2c0.2-0.2,0.5-0.2,0.8-0.1C75.4,78.8,75.4,78.6,75.3,78.6z"/>
		</g>
	</g>
	<g>
		<g>
			<path d="M63.3,86.2C63.3,86.2,63.3,86.2,63.3,86.2c-0.1-0.1-0.2-0.1-0.2-0.1c-0.1,0-0.1,0-0.2,0.1c-0.1,0-0.2,0-0.2,0
				c0,0,0,0.1,0,0.1c0.1,0,0.1,0.1,0.2,0.1c0,0.1,0.1,0.1,0.2,0.1c0.1,0,0.1,0,0.2,0c0,0,0,0,0,0C63.4,86.4,63.5,86.3,63.3,86.2z"/>
		</g>
	</g>
	<g>
		<g>
			<path d="M53,78.9c-0.1-0.3-0.4-0.3-0.5,0c0,0.1,0,0.1,0,0.2c0,0,0,0,0,0c-0.1,0-0.3,0-0.4-0.1c-0.2-0.1-0.3,0.1-0.3,0.3
				c0,0.2,0.2,0.3,0.4,0.3c0,0.1,0.1,0.1,0.2,0.1c0.1,0,0.1-0.1,0.2-0.1c0.1,0,0.1,0,0.2-0.1c0.1,0,0.1-0.1,0.2-0.1
				c0,0,0.1-0.1,0.1-0.1C53,79.1,53,79,53,78.9z"/>
		</g>
	</g>
	<g>
		<g>
			<path d="M53.6,89.6C53.6,89.6,53.6,89.6,53.6,89.6C53.6,89.6,53.6,89.6,53.6,89.6c0-0.1-0.1-0.1-0.1,0c0,0,0,0,0,0l-0.1,0.1
				c-0.1,0.1,0,0.3,0.1,0.2l0.1-0.1C53.7,89.7,53.7,89.7,53.6,89.6z"/>
		</g>
	</g>
	<g>
		<g>
			<path d="M53.2,84.3c0,0.1,0,0.3,0,0.4c0,0.2,0.3,0.3,0.3,0c0-0.1,0-0.3,0-0.4C53.5,84.1,53.2,84.1,53.2,84.3z"/>
		</g>
	</g>
	<g>
		<g>
			<path d="M70.8,82.9c0-0.1,0-0.1-0.1-0.1c0,0-0.1-0.1-0.2-0.1c-0.2,0-0.2,0.2-0.1,0.3c0,0,0.1,0.1,0.1,0.1c0,0,0,0,0,0
				c0,0,0,0.1,0,0.1c0,0.1,0.2,0.1,0.2,0C70.9,83.1,70.9,83,70.8,82.9z"/>
		</g>
	</g>
	<g>
		<g>
			<path d="M50.7,89.2C50.7,89.2,50.7,89.2,50.7,89.2c-0.1,0-0.1-0.1-0.1-0.1c-0.1,0-0.1-0.1-0.2-0.1c-0.1-0.1-0.2-0.1-0.3,0.1
				c0,0,0,0,0,0.1c0,0.1,0,0.2,0.1,0.2c0.1,0,0.3,0.1,0.4,0c0,0,0.1,0,0.1-0.1c0,0,0,0,0,0C50.8,89.4,50.8,89.3,50.7,89.2z"/>
		</g>
	</g>
	<g>
		<g>
			<path d="M55.3,89.5c-0.1,0-0.2,0-0.2,0.1c0,0.1,0.1,0.1,0.2,0.1C55.4,89.7,55.4,89.5,55.3,89.5z"/>
		</g>
	</g>
	<g>
		<g>
			<path d="M52.3,85.8c-0.1,0-0.1,0-0.1,0.1c0,0-0.1,0-0.1,0.1c0,0,0.1,0.1,0.1,0.1c0,0,0,0,0,0c0,0.1,0.1,0.1,0.2,0c0,0,0,0,0,0
				c0,0,0,0,0,0c0,0,0,0,0,0C52.5,85.9,52.4,85.8,52.3,85.8z"/>
		</g>
	</g>
	<g>
		<g>
			<path d="M49.5,85.3c0-0.1-0.1-0.1-0.1-0.1c0-0.1,0-0.2,0-0.2c0-0.1-0.2-0.1-0.2,0c0,0.1-0.1,0.1-0.1,0.2c0,0.1,0,0.2,0,0.3
				c0,0.1,0,0.1,0.1,0.1c0.1,0.1,0.3,0.2,0.4,0c0,0,0.1-0.1,0.1-0.1c0,0,0,0,0,0c0,0,0,0,0,0C49.5,85.4,49.5,85.3,49.5,85.3z"/>
		</g>
	</g>
	<g>
		<g>
			<path d="M51.9,88.5c-0.1-0.1-0.2-0.1-0.3-0.1c-0.1,0-0.2,0.1-0.2,0.1c0,0,0,0,0,0c0,0.1,0,0.2,0.2,0.2c0.1,0,0.1,0,0.2,0
				c0,0.1,0.1,0.1,0.2,0C52,88.6,52,88.6,51.9,88.5z"/>
		</g>
	</g>
	<g>
		<g>
			<path d="M54.8,87.9C54.8,87.8,54.8,87.8,54.8,87.9c0-0.2-0.1-0.3-0.2-0.3c-0.1,0-0.2,0-0.3,0c-0.1,0-0.2,0-0.3,0
				c-0.1,0-0.1,0.1,0,0.1c0.1,0,0.2,0.1,0.3,0.1c0,0,0.1,0,0.1,0c0,0.2,0.2,0.3,0.3,0.1c0,0,0,0,0,0C54.8,88,54.8,87.9,54.8,87.9z"
				/>
		</g>
	</g>
	<g>
		<g>
			<path d="M58.1,88.4c0,0-0.1,0-0.2,0c-0.2,0-0.2,0.3,0,0.3c0.1,0,0.1,0,0.2,0C58.2,88.6,58.2,88.4,58.1,88.4z"/>
		</g>
	</g>
	<g>
		<g>
			<path d="M59.4,89c-0.1,0-0.2,0-0.3,0c0,0,0,0.1,0,0.1c0.1,0,0.2,0,0.3,0.1C59.5,89.2,59.5,89,59.4,89z"/>
		</g>
	</g>
	<g>
		<g>
			<path d="M71.2,85.2C71.2,85.2,71.2,85.2,71.2,85.2C71.2,85.2,71.2,85.2,71.2,85.2c-0.1,0.1-0.1,0.2-0.1,0.2c0,0,0.1,0,0.1,0
				c0,0,0.1,0,0.1,0c0,0,0.1-0.1,0.1-0.1C71.5,85.1,71.2,85,71.2,85.2z"/>
		</g>
	</g>
	<g>
		<g>
			<path d="M55.5,89.4C55.5,89.4,55.4,89.4,55.5,89.4C55.4,89.4,55.4,89.4,55.5,89.4c0-0.2-0.3-0.3-0.2-0.1c0,0.1,0,0.1,0.1,0.2
				C55.4,89.5,55.4,89.5,55.5,89.4C55.5,89.5,55.5,89.4,55.5,89.4z"/>
		</g>
	</g>
	<g>
		<g>
			<path d="M73,80.1c-0.1-0.1-0.2-0.1-0.3-0.2c0,0-0.1-0.1-0.1-0.1c0,0,0,0,0,0c0,0,0,0-0.1-0.1c-0.1-0.1-0.3,0-0.2,0.1
				c0,0,0,0,0,0.1c0,0,0,0.1,0,0c0,0.1,0,0.1,0.1,0.2c0.1,0.1,0.2,0.2,0.3,0.3c0.1,0.1,0.2,0.1,0.3,0c0,0,0,0,0.1-0.1
				C73.1,80.3,73,80.2,73,80.1z"/>
		</g>
	</g>
	<g>
		<g>
			<path d="M57.7,89.6c0-0.1,0-0.2-0.1-0.2c-0.1,0-0.2,0-0.2,0.1c0,0,0,0.1,0,0.1c0,0,0,0,0,0c0,0-0.1,0.1-0.1,0.1
				c-0.1,0.2,0.2,0.2,0.2,0.1c0,0,0,0,0,0c0,0,0,0,0,0C57.7,89.8,57.7,89.7,57.7,89.6z"/>
		</g>
	</g>
	<g>
		<g>
			<path d="M57.3,85.3c-0.1-0.1-0.2-0.1-0.3-0.1c-0.2,0-0.3,0.2-0.2,0.3c-0.4,0-0.8,0.1-1.2,0.2c-0.1,0,0,0.2,0,0.2
				c0.4-0.1,0.8-0.2,1.2-0.3c0,0,0,0,0,0c0,0,0,0.1,0,0.1c0,0.1,0.1,0.1,0.1,0.1c0,0,0,0,0,0c0.1,0,0.2,0,0.2-0.1
				C57.4,85.5,57.4,85.4,57.3,85.3z"/>
		</g>
	</g>
	<path d="M90.1,59.1c0.1,0,0.3,0,0.4,0c-0.6,0-1.2-0.1-1.8-0.3c0,0,0,0,0,0c0,0,0,0.1,0,0.1C88.7,58.9,89.9,59.1,90.1,59.1z"/>
	<path d="M87.1,58.3c-0.3,0.1-0.5,0.2-0.8,0.3c-0.6,0.3-1.1,0.6-1.6,0.9c0.4-0.1,0.8-0.2,1.3-0.4C86.5,58.9,86.7,58.5,87.1,58.3z"/>
	<path d="M93.3,59.4c-0.1,0-0.2-0.1-0.3-0.1c0.1,0.1,0.3,0.1,0.3,0.2c0.6,0.5,0.3,1.2,0,1.7c-0.6,1.1-2.4-0.1-3.1,1.1
		c-0.5,0.8-1.1,0.5-1.9,0.6c-0.5-0.3-0.2-0.4-0.7-0.1c-0.2,0.1-0.5,0.1-0.8,0c-0.1,0-0.2-0.2-0.3-0.2c-0.1-0.1-0.2,0-0.3-0.1
		c-0.1-0.1-0.2,0.1-0.4,0c-0.2-0.1-0.4-0.4-0.5-0.6c0-0.1-0.1-0.4-0.1-0.6c-0.1,0-0.1,0-0.1-0.1c-0.2-0.2-0.4-0.4-0.5-0.6
		c-0.1-0.1-0.1-0.2-0.1-0.3c-0.2-0.2-0.3,0.1-0.5-0.1c-0.2,0-0.3-0.2-0.2-0.4c0.1-0.1,0.2-0.2,0.3-0.3c-0.2,0.1-0.4,0.2-0.7,0.2
		c-1.3,0.3-0.8,1.7-0.3,2.4c0.4,0.6,0.8,0.9,1.4,1.2c0.5,0.2,0.7,1,1.3,1.1c0.5,0.1,1.1-0.3,1.5,0c0,0.1,0.1,0.1,0.2,0.1
		c0.8,0.1,1.5,0.3,2.4,0.1c0.2-0.1,0.4-0.2,0.5-0.3c0.6-0.6,1.3-0.7,2-0.7c1.5,0.1,1.2-1.1,1.7-2.1C94.7,60.9,94.2,59.9,93.3,59.4z"
		/>
	<path d="M88.2,58.4c-0.1-0.1-0.3-0.1-0.4-0.1c0,0,0,0,0,0C87.9,58.4,88.1,58.4,88.2,58.4z"/>
	<path d="M84.1,54c0.1,0,0.2-0.2,0.1-0.2c-0.2-0.1,0.7-0.2,0.8-0.2c0.3-0.1,0-0.1,0.2-0.3c0.3-0.3,0.1-0.5-0.1-0.7c0,0,0,0,0,0
		c0,0.2-0.9,0.4-1.1,0.5c-0.1,0.1-0.1,0.1-0.2,0.2c-0.1,0-0.6,0.1-0.6,0.1c0-0.1-0.1-0.1-0.2-0.1c-0.3-0.1-0.4,0-0.7,0.1
		c-0.1,0-0.1,0.1-0.2,0.1c-0.1,0-0.2,0-0.4,0.1c-0.3,0.1-0.7,0-0.7-0.1c0.1-0.4-1-0.4-0.4-0.8c0.1,0,0.1-0.1,0.1-0.1
		c-0.2-0.5,0.6-0.3,1.1-0.5c0.4-0.1,0.1-0.3,0.7-0.2c0.1,0,0.3,0.1,0.4,0c0.3,0,0.3,0.1,0.6,0.1c0.3,0,1,0.2,1,0.4
		c0,0,0,0.1,0.1,0.1c0.1,0,0.1,0,0.1,0.1c-0.2-0.2-0.6-0.6-0.9-0.6c-0.3,0-0.5-0.2-0.7-0.2c-0.3,0-0.6,0-0.9,0
		c-0.1,0-0.2,0.1-0.3,0.1c-0.4,0.2-0.6,0.2-1,0.3c-0.5,0.1-0.7,0.3-0.5,0.6c0,0-0.3,0.4-0.3,0.5c0,0.2,0.2,0.4,0.4,0.5
		c0.3,0.2,0.4-0.1,0.3,0.2c-0.1,0.2-0.1,0.4,0.3,0.5c1,0.4,0.8,0.1,1.4-0.2c0,0,0,0,0.1,0c0.1,0,0.1-0.1,0.2-0.1
		c0,0.1,0.2,0.1,0.3,0.2C83.2,54.4,83.8,54.1,84.1,54z"/>
	<path d="M70.2,56.9c0.1-0.1,0.3-0.2,0.4-0.3c0.6-0.3,0.3-0.1,1.2-0.2c0,0,0.1,0,0.1,0c0.1,0,0.1,0,0.2,0c0.1,0,0.2,0,0.4-0.1
		c0,0,0,0,0,0c0.1,0,0.1,0,0.2,0c0.1,0,0.3,0,0.4,0c0.1,0,0-0.1,0-0.1c-0.1,0-0.3,0-0.4,0c-0.1,0-0.2,0-0.3,0c-0.1,0-0.3,0-0.4,0.1
		c0,0,0,0-0.1,0c0,0,0,0-0.1,0c0,0-1.7,0.3-1.5,0.4c-0.1,0-0.2,0-0.2,0.1c-0.5,0.6-1.1,1.6-0.9,2.3c0.1,0.3,0.9,1.1,1.4,1.1
		c0.4,0,0.5-0.1,0.8,0.1c0.2,0.1,0.4,0.3,0.7,0.3c0.5,0.1,0.5-0.1,1,0c0.8,0.2,2.7,0.1,2.7-0.6c0.2,0,0.3,0,0.5-0.1
		c0.2,0,0.4-0.1,0.5-0.2c0,0,0,0,0,0c0,0,0,0,0.1-0.1c0.2,0,0.3,0,0.4-0.1c0,0,0,0,0-0.1c0,0,0,0,0,0c0,0,0,0,0,0c0,0,0,0,0,0
		c0,0,0-0.1,0-0.1c0,0,0-0.1,0-0.1c0.1,0,0.2-0.1,0.2-0.2c0,0,0,0,0,0c0.3-0.1,0.3-1.1,0.2-1.3c-0.1-0.2-0.2-0.6-0.6-0.7
		c-0.2-0.3-0.6-0.4-1-0.4c-0.2,0-0.3-0.1-0.5-0.1c-0.2-0.1-0.5-0.1-0.7-0.1c-0.5,0-0.9-0.2-1.4-0.2c-0.1,0-0.1,0.1,0,0.1
		c0.1,0,0.1,0.2,0.3,0.2c0.3,0.1,0.7,0.1,1.1,0.1c0.3,0.1,0.6,0,0.9,0.1c0.1,0,0.1,0,0.1,0c0,0,0.1,0.1,0.1,0c0.3,0,0.5,0.1,0.6,0.3
		c0,0.1,0,0.2,0.1,0.3c0,0,0,0,0.1,0c0.1,0.2,0.1,0.4,0.1,0.6c-0.1,0-0.2,0-0.2,0.1c-0.5,0.3-0.6,0.8-1.5,0.7
		c-0.2,0-0.5,0.1-0.4,0.3c0.2,0.5-2,0.2-2.5,0.4c-0.3,0.1-1.7-0.8-2.2-0.7c-1.1,0.1-0.4-0.6-0.5-0.9C69.5,57.2,69.9,57.2,70.2,56.9z
		"/>
</g>
</svg>
