<?xml version="1.0" encoding="utf-8"?>
<!-- Generator: Adobe Illustrator 23.0.2, SVG Export Plug-In . SVG Version: 6.00 Build 0)  -->
<svg version="1.1" xmlns="http://www.w3.org/2000/svg" xmlns:xlink="http://www.w3.org/1999/xlink" x="0px" y="0px"
	 viewBox="0 0 100 125" style="enable-background:new 0 0 100 125;" xml:space="preserve">
<g id="Layer_2">
</g>
<g id="Layer_1">
	<path d="M47.9,36.1C47.9,36.1,47.9,36.1,47.9,36.1C47.9,36.1,47.9,36.1,47.9,36.1c0.1,0.1,0.2,0.1,0.2,0.1c0.1-0.1,0.1-0.1,0.2-0.2
		c0-0.1-0.1-0.2-0.2-0.2c0,0-0.1,0-0.1,0c0,0,0,0,0,0c0-0.1-0.3-0.1-0.3,0c0,0.1,0,0.1,0,0.2C47.7,36,47.8,36,47.9,36.1z"/>
	<path d="M48,35.5c0,0.1,0.1,0,0.1-0.1c0,0,0-0.1,0-0.2c0-0.1,0-0.1-0.1-0.1c-0.1,0-0.1,0-0.1,0.1c0-0.1-0.1-0.1-0.1-0.1l0,0
		c0,0,0,0.1,0,0.1C47.8,35.2,48,35.4,48,35.5z"/>
	<path d="M41,44L41,44c-0.1,0-0.3,0-0.4,0.1c-0.1,0.1-0.2,0.2-0.2,0.4c0,0-0.1,0-0.1,0.1c-0.1,0.1,0,0.2,0.1,0.2c0,0,0.1,0,0.1,0
		c0.1,0.1,0.2,0.1,0.3,0c0.1,0,0.2-0.1,0.3-0.1c0.2,0,0.3-0.3,0.2-0.4C41.2,44.1,41.1,44,41,44z"/>
	<path d="M46.8,35.5c0,0.2,0.2,0.3,0.4,0.4c0.1,0,0.1,0,0.2,0c0,0,0,0,0.1-0.1c0,0,0-0.1,0-0.1c-0.1-0.1-0.3-0.3-0.3-0.4
		c0-0.1-0.1-0.2-0.2-0.1C46.7,35.2,46.7,35.3,46.8,35.5C46.8,35.5,46.8,35.5,46.8,35.5z"/>
	<path d="M48.2,39.2C48.2,39.3,48.2,39.3,48.2,39.2c0.2,0,0.2-0.1,0.3-0.2c0,0,0.1,0,0.1-0.1c0,0,0,0,0,0c0.1,0,0.2-0.1,0.1-0.1
		c0,0,0-0.1-0.1-0.1c0,0-0.1-0.1-0.1-0.1C48.3,38.7,48.2,39,48.2,39.2z"/>
	<path d="M46.1,40.3c0.2,0,0.3,0.1,0.5,0c0.2-0.1,0.4-0.2,0.4-0.4c0-0.1,0-0.2-0.1-0.2c0,0,0,0,0,0c-0.1-0.1-0.3,0-0.4,0
		c0-0.1-0.1-0.1-0.2-0.1c-0.1,0-0.2,0-0.3,0.1c0,0,0,0,0,0c0,0,0,0.1,0,0.1c0,0,0,0.1,0,0.1C45.8,40,45.9,40.2,46.1,40.3z"/>
	<path d="M44.5,42.2c-0.1-0.2-0.4,0-0.4,0.2c0,0.1,0,0.2,0.1,0.3c0.1,0.1,0.2,0.1,0.3,0c0,0,0.1-0.1,0.1-0.2c0,0,0.1,0,0.1,0
		c0.1,0,0.1-0.2,0-0.2C44.6,42.3,44.5,42.2,44.5,42.2z"/>
	<path d="M42.1,40.9c-0.1,0-0.2-0.1-0.4-0.1c-0.1,0-0.3,0-0.4,0c-0.2,0-0.4,0.2-0.2,0.4c0.3,0.2,0.7,0.3,1,0.2
		C42.3,41.3,42.3,41,42.1,40.9z"/>
	<path d="M45.8,42.4c0.1,0.1,0.1,0.1,0.2,0.2c0.1,0,0.1,0.1,0.2,0.1c0.1,0,0.2-0.1,0.2-0.2c0-0.1,0-0.1-0.1-0.2
		c0-0.1-0.1-0.1-0.2-0.2c-0.1-0.1-0.2-0.2-0.4-0.3c-0.2-0.1-0.4,0.1-0.3,0.3C45.6,42.2,45.7,42.3,45.8,42.4z"/>
	<path d="M48.9,35.7c0.1,0,0.1,0,0.2,0c0-0.1-0.1,0,0-0.1c0.1-0.1,0.1-0.2,0-0.3c0,0-0.1,0-0.1,0c0,0-0.1,0-0.1,0c0,0,0,0,0,0
		c-0.1,0-0.1,0-0.1,0.1c0,0,0,0.1,0,0.1C48.7,35.7,48.8,35.8,48.9,35.7z"/>
	<path d="M47.7,37.8c-0.1,0-0.1,0.2,0,0.3c0.1,0,0.2,0.1,0.3,0c0.1-0.1,0.1-0.2,0-0.3C47.9,37.7,47.8,37.7,47.7,37.8z"/>
	<path d="M49,36.8L49,36.8C49,36.8,49,36.8,49,36.8c0.2-0.1,0.2-0.3,0.1-0.4c-0.1-0.1-0.1-0.1-0.2-0.2c-0.2-0.2-0.6,0.1-0.3,0.3
		C48.7,36.7,48.9,36.8,49,36.8z"/>
	<path d="M47.3,36.7c-0.1,0.1-0.3,0.2-0.4,0.4c0,0.1,0.1,0.2,0.1,0.1c0.1,0,0.2-0.1,0.3-0.1c0,0,0,0,0.1,0c0.1,0.1,0.1,0.2,0.1,0.4
		c0,0.1,0.2,0.1,0.3,0c0.1-0.3,0.1-0.6-0.2-0.8C47.5,36.6,47.4,36.6,47.3,36.7z"/>
	<path d="M82.4,61.5c0.1,0,0.1,0.1,0.2,0.1c-0.1,0,0,0,0,0.1c0,0,0,0.1,0,0.1c0,0.2,0.3,0.1,0.3,0c0-0.1,0-0.3-0.1-0.4
		c-0.1-0.1-0.1-0.1-0.2-0.2c-0.1,0-0.2-0.1-0.2-0.1C82.2,61.1,82.2,61.5,82.4,61.5z"/>
	<path d="M83.8,64.8c0,0,0.1,0,0.1,0c0.1-0.1,0.1-0.1,0.1-0.2c0-0.2-0.3-0.3-0.3-0.1c0,0,0,0.1,0,0.1c0,0-0.1,0-0.1,0
		c0,0,0,0.1,0,0.1C83.6,64.7,83.7,64.8,83.8,64.8z"/>
	<path d="M81,32.6c0.3,0,0.3-0.5,0-0.5S80.7,32.6,81,32.6z"/>
	<path d="M80,64.5c0.1-0.1,0.3-0.2,0.4-0.3c0.1,0,0.1-0.2,0-0.3c-0.1,0-0.1,0-0.1,0.1C80.1,64.1,80,64.2,80,64.5
		C79.9,64.4,79.9,64.5,80,64.5z"/>
	<path d="M45,39.5c0.1,0,0.2,0,0.3,0.1c0,0,0.1,0,0.1,0c0.1-0.1,0-0.2-0.1-0.3c-0.1-0.1-0.2-0.1-0.3,0C44.9,39.3,44.9,39.5,45,39.5z
		"/>
	<path d="M84.5,57C84.5,57,84.5,57.1,84.5,57c0,0.1,0.1,0.2,0.2,0.3c0.1,0.2,0.3,0.3,0.4,0.4c0.1,0.1,0.3,0.1,0.4,0
		c0,0,0.1-0.1,0.1-0.1c0-0.1,0-0.3-0.1-0.4c-0.1-0.1-0.3-0.2-0.4-0.3c-0.1,0-0.1-0.1-0.2-0.1c0,0,0,0,0,0c0,0-0.1,0-0.1-0.1
		C84.6,56.6,84.4,56.7,84.5,57C84.5,56.9,84.5,56.9,84.5,57z"/>
	<path d="M80.8,53.2c0,0,0.1-0.1,0.1-0.1c0.1,0,0.2,0,0.3,0c0.1,0,0.1-0.2,0-0.3c-0.2,0-0.3-0.1-0.4,0c-0.1,0.1-0.1,0.2-0.1,0.3
		C80.7,53.2,80.8,53.2,80.8,53.2z"/>
	<path d="M45.2,33.6c0.1,0,0.2-0.1,0.3-0.2c0.2-0.1,0-0.4-0.2-0.3c-0.1,0-0.2,0.1-0.3,0.1C44.8,33.4,45,33.7,45.2,33.6z"/>
	<path d="M44.6,34.4C44.6,34.4,44.6,34.4,44.6,34.4c0.3,0.1,0.3-0.4,0.1-0.3c0,0,0,0-0.1,0C44.4,34.1,44.4,34.3,44.6,34.4z"/>
	<path d="M85.4,59c-0.1,0-0.1,0.2,0,0.2c0,0,0,0,0,0c-0.1,0-0.1,0.1,0,0.2c0.2,0.2,0.5,0.1,0.7-0.1c0.1-0.1,0-0.4-0.2-0.4
		c-0.1,0-0.2,0-0.3,0.1C85.5,59,85.4,59,85.4,59z"/>
	<path d="M43,42c0.3-0.1,0.5-0.3,0.8-0.5c0.2-0.1,0.4-0.4,0.7-0.3c0.1,0,0.2-0.1,0.2-0.2c-0.2-0.4-0.6-0.4-0.9-0.1
		c-0.3,0.3-0.5,0.7-0.8,1C42.9,41.9,43,42,43,42z"/>
	<path d="M87.4,55.3c0.2-0.3,0.7-0.3,1.1-0.3c0.2,0,0.2-0.3,0-0.3c-0.5-0.1-1.1-0.1-1.4,0.4C87,55.3,87.3,55.5,87.4,55.3z"/>
	<path d="M49.6,37.4c0,0,0.1,0.1,0.2,0.1c0.1,0.1,0.3-0.1,0.3-0.2c0-0.1,0-0.2,0-0.3c0,0,0,0,0,0c0,0,0,0,0,0c0,0,0-0.1,0-0.1
		c0-0.3-0.5-0.4-0.5-0.1c0,0.1,0,0.1,0,0.2c0,0-0.1,0.1-0.1,0.1l0,0.1c0,0,0,0.1,0,0.1c0,0,0,0.1,0.1,0.1
		C49.5,37.5,49.6,37.5,49.6,37.4z"/>
	<path d="M25,40.7c-0.1,0-0.1,0.2,0,0.2c0.1,0,0.3,0.1,0.4,0.1c0.1,0,0.1,0,0.1-0.1c0,0,0-0.1,0-0.1c0-0.1-0.1-0.1-0.1-0.1
		C25.3,40.7,25.1,40.7,25,40.7z"/>
	<path d="M39.6,46.5C39.6,46.5,39.6,46.5,39.6,46.5C39.6,46.5,39.6,46.5,39.6,46.5c-0.1,0.2-0.1,0.2-0.1,0.3c0,0,0,0.1,0,0.1
		c0,0.1,0,0.1,0,0.2c0,0,0,0,0,0c0,0,0,0,0,0c0,0,0,0,0,0c0.1,0.2,0.4,0.2,0.5,0c0.1-0.2,0.1-0.4,0-0.7
		C40.1,46.2,39.6,46.2,39.6,46.5z"/>
	<path d="M26.1,43.4C26.1,43.4,26,43.4,26.1,43.4c-0.2-0.2-0.5,0-0.5,0.1s0.2,0.3,0.4,0.2c0,0,0.1,0,0.1-0.1c0,0,0,0,0,0
		C26.2,43.6,26.2,43.5,26.1,43.4C26.1,43.4,26.1,43.4,26.1,43.4z"/>
	<path d="M21,46c-0.1-0.2-0.5-0.1-0.5,0.1c0,0.3,0.4,0.3,0.5,0.1c0,0.1,0,0,0,0C21.1,46.2,21.1,46,21,46C20.9,46,20.9,45.9,21,46z"
		/>
	<path d="M28.6,45.5c-0.1-0.1-0.2-0.1-0.4-0.2c-0.1,0-0.2,0-0.4,0c-0.1,0-0.1,0.2-0.1,0.2c-0.1,0-0.3,0.1-0.4,0.2
		c-0.1,0,0,0.1,0.1,0.1c0.1,0,0.3-0.1,0.4-0.1c0,0,0.1,0,0.1,0c0,0,0,0,0.1,0c0.1,0,0.1,0,0.2,0.1c0.1,0,0.1,0,0.2-0.1c0,0,0,0,0,0
		C28.6,45.8,28.7,45.6,28.6,45.5z"/>
	<path d="M29.3,41c-0.2,0.1-0.3,0.4-0.1,0.5c0.1,0.1,0.3,0,0.4-0.1C29.7,41.1,29.5,41,29.3,41z"/>
	<path d="M30.6,44.1c0.3,0.1,0.7,0.1,0.9-0.1c0.1-0.1,0.1-0.3,0-0.4c0,0,0,0,0-0.1c0,0,0,0,0,0c0,0,0-0.1,0-0.1c0-0.1-0.1-0.1-0.1,0
		c0,0,0,0,0,0.1c-0.2-0.1-0.5-0.1-0.8,0C30.3,43.6,30.3,44.1,30.6,44.1z"/>
	<path d="M31.2,40.7c0.2,0,0.3-0.2,0.2-0.4c0,0-0.1,0-0.1,0c0,0,0,0.2-0.1,0.2C31.1,40.6,31.1,40.8,31.2,40.7z"/>
	<path d="M30.8,48.1c-0.3,0-0.6,0.2-0.6,0.5c0,0,0,0,0,0.1c0.2,0.1,0.5,0.1,0.7,0.1c0.2,0,0.5,0,0.6-0.2c0.1-0.1,0.1-0.1,0-0.2
		C31.4,48.2,31.1,48.1,30.8,48.1z"/>
	<path d="M16.6,45.2C16.6,45.2,16.6,45.2,16.6,45.2c0-0.1-0.1-0.2-0.1-0.3c-0.1-0.2-0.3-0.1-0.4,0c0,0-0.1,0-0.1,0
		c-0.1,0-0.1,0.1,0,0.1c0,0,0,0,0.1,0c0,0.1,0,0.2,0.1,0.3c0.1,0.1,0.2,0.1,0.3,0.2c0.1,0.1,0.3-0.1,0.2-0.2
		C16.7,45.4,16.6,45.3,16.6,45.2z"/>
	<path d="M20.7,42.1c0.1,0.1,0.2-0.1,0.1-0.2c-0.2-0.2-0.6-0.3-0.9-0.2c-0.1,0-0.1,0.1,0,0.2C20,42,20.2,42,20.3,42
		C20.4,42,20.5,42,20.7,42.1z"/>
	<path d="M13.7,44.3C13.7,44.3,13.7,44.3,13.7,44.3C13.6,44.3,13.6,44.3,13.7,44.3c-0.1-0.1-0.2-0.1-0.3-0.1c-0.2,0-0.3,0.3-0.1,0.4
		c0.1,0,0.1,0.1,0.1,0.2c0,0.1,0.2,0.1,0.2,0c0-0.1,0-0.1,0-0.2c0.1,0,0.1-0.1,0.1-0.1C13.8,44.4,13.7,44.3,13.7,44.3z"/>
	<path d="M24.2,45.1C24.2,45.1,24.2,45.1,24.2,45.1c-0.1,0-0.1,0-0.2,0.1c0,0-0.1,0.1-0.1,0.1c0,0,0,0,0,0c0,0,0,0,0,0
		c-0.1,0-0.2,0.1-0.2,0.2c0,0.1,0.1,0.2,0.2,0.2c0.1,0,0.2,0,0.3-0.1c0,0,0.1-0.1,0.2-0.1c0.1,0,0.3-0.1,0.3-0.3
		C24.6,45.1,24.4,44.9,24.2,45.1z"/>
	<path d="M37.2,48.2c-0.1,0-0.1,0-0.2,0c-0.1,0-0.1,0.1-0.1,0.2c0,0.2-0.1,0.2-0.2,0.4c-0.1,0.1,0,0.2,0.1,0.2
		c0.1,0,0.1-0.1,0.2-0.1c0,0.1,0,0.1,0,0.2c0,0.2,0,0.4,0,0.5c0,0.1,0.1,0.1,0.1,0.1c0.3-0.2,0.3-0.8,0.3-1.1
		C37.4,48.2,37.3,48.1,37.2,48.2z"/>
	<path d="M36.5,40.5c-0.1-0.1-0.1-0.2-0.2-0.3c0-0.1-0.1-0.1-0.1-0.2c-0.1-0.1-0.2,0-0.2,0.1C36.1,40.3,36.2,40.4,36.5,40.5
		C36.4,40.6,36.5,40.5,36.5,40.5z"/>
	<path d="M35.5,50.6c-0.1,0-0.2,0.1-0.3,0.1c-0.1,0-0.1,0.1,0,0.2c0,0.1-0.1,0.1-0.1,0.2c0,0.1,0,0.2,0,0.3c0,0.1,0.1,0.2,0.2,0.2
		c0.1,0,0.2-0.1,0.2-0.2c0-0.1,0-0.1,0.2-0.2c0.1,0,0.1-0.1,0.1-0.2c0-0.1,0-0.2-0.1-0.2C35.6,50.6,35.6,50.5,35.5,50.6z"/>
	<path d="M37.3,45.2C37.2,45.1,37,45,36.8,45c-0.2,0-0.4,0.1-0.5,0.3c0,0.1-0.1,0.3,0.1,0.3c0.1,0,0.3-0.1,0.5-0.1
		c0.2,0,0.5,0.2,0.7,0.2c0,0,0.1,0,0.1-0.1C37.6,45.5,37.5,45.3,37.3,45.2z"/>
	<path d="M40,42.4c0,0,0.1-0.1,0.1-0.1c0,0,0,0,0,0c0.1,0,0.1-0.1,0.1-0.1c0,0,0,0,0,0c0,0,0,0,0,0c0,0,0-0.1,0-0.1
		c0.1-0.2-0.1-0.4-0.2-0.4c-0.1,0-0.2,0-0.2-0.1c-0.1,0-0.3,0.1-0.3,0.2c0,0,0,0.1-0.1,0.1c-0.1,0.1-0.1,0.2-0.1,0.3c0,0,0,0,0,0
		c0,0,0,0,0,0l0,0C39.4,42.5,39.7,42.7,40,42.4z"/>
	<path d="M80,32.5c0.2,0,0.2-0.4-0.1-0.4c-0.1,0-0.1,0-0.2,0c0,0-0.1,0-0.1,0c-0.1,0-0.2,0.1-0.1,0.2C79.6,32.6,79.8,32.6,80,32.5z"
		/>
	<path d="M38,42.3C38,42.4,37.9,42.4,38,42.3C37.9,42.4,37.9,42.4,38,42.3c-0.2,0.2-0.5,0.3-0.8,0.2c-0.1,0-0.1,0.1-0.1,0.2
		c0.1,0.1,0.3,0.2,0.5,0.2c0.2,0,0.4-0.2,0.6-0.3C38.4,42.5,38.2,42.2,38,42.3z"/>
	<path d="M34.3,41.5c0.1,0,0.1-0.2,0-0.2c0,0-0.1,0-0.1,0c-0.1,0-0.1,0.1,0,0.1C34.2,41.5,34.2,41.5,34.3,41.5z"/>
	<path d="M34.3,41.7C34.3,41.7,34.3,41.7,34.3,41.7c-0.2,0-0.3,0-0.4-0.1c-0.1-0.1-0.2,0.1-0.1,0.1C34,42,34.2,42,34.3,41.7z"/>
	<path d="M34.6,45.3c-0.1,0-0.3,0-0.4,0.1c-0.1,0-0.1,0.2,0,0.2c0.1,0,0.3,0.1,0.4,0.1C34.8,45.7,34.8,45.3,34.6,45.3z"/>
	<path d="M34.1,50.3c0.1,0.1,0.1,0.1,0.2,0c0.1-0.2,0.1-0.5-0.1-0.6c-0.1-0.1-0.2-0.1-0.3-0.2c-0.2-0.1-0.3,0-0.4,0.1
		c-0.1,0-0.1,0.1-0.1,0.1c0,0,0,0,0,0c-0.1,0.1,0,0.2,0.1,0.2c0,0,0,0,0,0c0,0,0,0,0,0c0,0,0.1,0,0.2,0c0.1,0,0.2,0,0.2,0
		C34,50.1,34,50.2,34.1,50.3z"/>
	<path d="M34.4,52.7C34.4,52.6,34.4,52.6,34.4,52.7c0-0.1-0.1-0.1-0.1-0.1c0,0,0,0,0,0c-0.1-0.1-0.4-0.1-0.4,0.1
		c0,0.3,0.2,0.5,0.4,0.4c0.1,0,0.1,0,0.2-0.1C34.5,52.9,34.5,52.8,34.4,52.7C34.4,52.7,34.4,52.7,34.4,52.7z"/>
	<path d="M42.6,43.2c0,0-0.1,0-0.2,0c-0.1,0.1-0.2,0.2-0.3,0.3c0,0.1,0,0.1,0.1,0.1c0.1,0,0.2-0.1,0.2-0.2c0,0,0,0,0,0.1
		c-0.1,0.1-0.1,0.3-0.1,0.3c0,0.3,0.5,0.3,0.5,0c0-0.1,0-0.3-0.1-0.4C42.8,43.4,42.7,43.3,42.6,43.2z"/>
	<path d="M52.6,67.9c0.1,0.2,0.4,0.2,0.5,0c0,0,0.1-0.1,0.1-0.2c0,0,0,0,0,0c0,0,0,0,0,0c0-0.1,0-0.1-0.1-0.2
		c-0.1-0.1-0.1-0.1-0.2-0.1c0-0.1,0-0.2-0.1-0.3c0-0.2-0.3-0.2-0.3,0c0,0.1-0.1,0.2-0.1,0.3c0,0.1,0,0.3,0.1,0.4
		C52.5,67.8,52.5,67.9,52.6,67.9z"/>
	<path d="M48.3,70.9C48.3,70.9,48.3,71,48.3,70.9c0.1,0.1,0.2,0.1,0.4,0.1c0,0,0,0.1-0.1,0.1c-0.1,0.1,0.1,0.2,0.2,0.2
		c0.2-0.2,0.5-0.3,0.8-0.3c0.2,0,0.2-0.3,0-0.3c-0.2,0-0.4,0-0.6,0.1c-0.1,0-0.1,0.1-0.2,0.2C48.6,70.9,48.5,70.9,48.3,70.9z"/>
	<path d="M51,69.7c0.4-0.1,0.7-0.2,1.1-0.2c0,0,0,0,0,0.1c0.1,0.3,0.4,0.3,0.6,0.1c0.1-0.1,0.1-0.2,0.2-0.4c0-0.1-0.1-0.2-0.2-0.2
		c-0.6,0-1.2,0.2-1.7,0.5C50.9,69.6,50.9,69.8,51,69.7z"/>
	<path d="M49,73.2c0,0-0.1,0-0.1,0.1c-0.1,0-0.1,0.2,0,0.2c0.1,0,0.1,0.1,0.1,0.1c0.1,0.1,0.2,0.1,0.4,0.1c0.1,0,0.2,0,0.3,0
		c0,0.1,0,0.2,0,0.4c0,0.2,0.2,0.3,0.4,0.2c0.1,0,0.1,0,0.2-0.1c0.1,0,0.1-0.1,0.1-0.2c0-0.1,0-0.3,0-0.5c0.1-0.2,0-0.4-0.2-0.4
		c-0.2,0-0.4,0-0.7,0C49.3,73.1,49.2,73.1,49,73.2z"/>
	<path d="M45.3,73c0.1-0.1,0.3-0.1,0.5-0.1c0,0.1,0,0.2,0,0.2c0,0.1,0.2,0.2,0.2,0c0-0.1,0-0.2,0-0.4c0-0.1,0-0.1-0.1-0.2
		c-0.1,0-0.3-0.1-0.4,0c-0.1,0.1-0.2,0.1-0.3,0.3C45.2,72.9,45.2,73,45.3,73z"/>
	<path d="M48.3,68.6c0.1,0,0.2,0,0.2,0c0.1,0,0.1,0,0.2,0c0.3,0,0.3-0.4,0-0.4c0,0-0.1,0-0.2,0c-0.1,0-0.2-0.1-0.2-0.1
		C48,68.1,48,68.6,48.3,68.6z"/>
	<path d="M43.2,67.8c0,0.1,0.1,0.2,0.2,0.3c0.1,0.1,0.1,0.1,0.2,0c0,0,0,0,0,0c0.1,0,0.2,0,0.3,0c0.3,0.2,0.6-0.2,0.4-0.5
		c0,0,0,0,0,0h0c0,0,0,0,0,0c-0.1-0.2-0.2-0.4-0.2-0.6c0-0.3-0.5-0.3-0.5,0c0,0.1,0,0.2,0,0.2c0,0,0,0.1,0,0.1c0,0,0,0,0,0
		C43.3,67.1,43,67.5,43.2,67.8C43.1,67.8,43.2,67.8,43.2,67.8z"/>
	<path d="M57,68C56.9,67.9,56.8,68,57,68c0,0.1,0,0.2,0,0.2c0,0,0,0,0,0c0,0.1,0.2,0.1,0.2,0c0,0,0,0,0-0.1c0,0,0,0,0-0.1
		c0,0,0,0,0,0c0.1-0.1,0-0.3-0.1-0.3C57.1,67.8,57,67.9,57,68z"/>
	<path d="M58.6,66.2c0-0.2,0-0.4,0-0.6c0-0.3-0.5-0.3-0.5,0c0,0.2,0,0.4,0,0.5C58.2,66.5,58.6,66.5,58.6,66.2z"/>
	<path d="M59.3,73.4l0.2-0.1c0.1-0.1,0.1-0.2,0-0.2c0,0,0,0,0,0c0,0,0,0,0,0c0,0-0.1-0.1-0.2,0c0,0,0,0,0,0l-0.2,0.1
		C58.9,73.3,59.2,73.6,59.3,73.4z"/>
	<path d="M56,59.1c0,0.1,0.2,0.1,0.2,0.1c0.1-0.1,0.2-0.1,0.2-0.2c0.1,0,0.2-0.1,0.3-0.1c0.1,0,0.2-0.1,0.2-0.2
		c0.1,0,0.1-0.1,0.1-0.2c0.1-0.2,0.1-0.4,0-0.6c-0.1-0.3-0.6-0.3-0.6,0.1c0,0.1,0,0.2,0,0.3c0,0,0,0,0,0c-0.2,0.1-0.4,0-0.6-0.1
		c-0.3-0.1-0.5,0.2-0.4,0.4C55.5,59,55.8,59.2,56,59.1z"/>
	<path d="M60.2,70.5c0.1,0,0.1,0,0.2,0c0,0.2,0.4,0.4,0.5,0.1c0,0,0,0,0,0c0.1,0,0.1-0.2,0-0.2c0,0,0-0.1,0-0.1
		c0-0.1-0.1-0.3-0.2-0.2c-0.1,0-0.3,0-0.4,0s-0.3,0.1-0.4,0.1c-0.1,0-0.1,0.1,0,0.2C59.9,70.4,60.1,70.5,60.2,70.5z"/>
	<path d="M56.6,71.6c-0.2,0-0.2,0.1-0.3,0.2c0,0,0,0,0,0c0,0.1,0.1,0.2,0.3,0.3c0.1,0,0.2,0,0.3,0c0,0.1,0.2,0.1,0.2,0
		c0-0.1,0-0.2-0.1-0.3C56.8,71.6,56.7,71.6,56.6,71.6z"/>
	<path d="M54.6,73.2c0.2,0,0.4,0.1,0.5,0c0.1,0,0.1-0.1,0.2-0.1c0,0,0,0,0,0c0.1,0,0.1-0.2,0-0.2c0,0,0,0-0.1,0
		c-0.1,0-0.1-0.1-0.1-0.1c-0.1-0.1-0.2-0.1-0.3-0.1c-0.1-0.1-0.3-0.1-0.4,0.1c0,0,0,0.1,0,0.1C54.4,73,54.5,73.2,54.6,73.2z"/>
	<path d="M91,50c-0.1,0-0.2-0.1-0.3,0c-0.2,0.1-0.2,0.4,0,0.4c0.1,0,0.2,0,0.3,0C91.2,50.3,91.2,50,91,50z"/>
	<path d="M87.1,62.1c-0.2,0.6-0.3,0.7-0.6,1.2c-0.3,0.4-1.3,0.4-1.5,1.1c-0.2,0.7,0,1.5-0.2,2.4c-0.1,0.9-0.2,0.2-0.8,0.7
		c-0.6,0.6-1,0.1-1,0.1l-0.6,0.9L82,69l-0.7,0.8L80.5,70c0,0-0.7-0.2-2.5,0.5c-1.8,0.7-0.4,0.8-1.5,1.8c-0.4,0.4,0,0-1.3,0.1
		c-1.3,0.1,0,0-2.1,0.2c-0.5,0-0.3,0.4-0.7,0.7c-0.8,0.6,0,0-1,0.7c-1,0.7-0.9-0.1-2.5-0.3c-1.6-0.3-0.7-0.1-1.8,0.5s0,0-0.7,0.8
		c-0.7,0.8-1.3,1.6-2.4,1.3c-1-0.2-3.6-0.1-4.3,0c-0.7,0.1-1.8,0-2.7,0.5c-0.9,0.5-1.2,0.1-2.4-0.7c-1.2-0.8-1-0.8-2.2-0.5
		c-1.2,0.3-2.8,2.2-4.8,1.6c-2.1-0.6-1.1-1.1-1.5-1.7c-0.5-0.6-1-0.2-2,0c-0.9,0.2-1.5-0.3-2.2-0.6c-0.7-0.3-1.3-0.9-2.7-0.7
		c-1.4,0.2,0,0-1.1,0.3s-3.1,1.3-5.8,1.6c-2.7,0.3-5.2-3.4-7.3-3.5c-2.1-0.1-3-1.2-3.7-0.3c-0.7,1-4-0.9-3,0.5
		c1,1.5-0.1,2.3,1.7,3.7c1.8,1.4,1.2,0.9,4.5,2.2c3.3,1.3,0,0,2.5,1c2.5,1,1.4,0.5,2.5,1.2c1,0.7,2,1.6,3.7,1.2s2.7,0.4,3.9,0.4
		c1.2,0,0.5-0.9,3.3,0.1c2.8,1,0,0,2,0.4c1.9,0.4,2.9,0.7,3-1.2c0-1.9,0.6-0.7,2-2c1.4-1.3,3.7,1.6,4.8,2.1c1.1,0.5,0.9,0,3.6-0.1
		c2.7-0.1,3.1-0.7,7.2-1.4c4.1-0.7,2.3-0.8,4.5-2c2.2-1.2,1.9-0.6,4.5-1.9c2.6-1.3,1.9-1.7,2.7-2.4c0.8-0.7,2.5-1,3.3-1.1
		c0.8-0.1,2.7,0.7,3.8-1.3c1.1-2,2.1-0.4,2.5-1.4c0.4-1,0.2-1.4,1.5-2.3c1.3-0.8,0.2-1.1,0.3-2.7c0.1-1.2,0.1-0.5,0.7-0.8
		c0.2-0.1,0.4-0.2,0.7-0.5c1.4-1.3,1-1.1,1.3-2.8c0.3-1.7-2-1.7,1.3-4.6C85.8,57.6,87.6,60.8,87.1,62.1z"/>
	<path d="M91.8,47.1c0-0.3-0.5-0.3-0.6,0c0,0.1,0,0.3,0,0.4c0,0.4,0.6,0.4,0.6,0C91.9,47.4,91.8,47.2,91.8,47.1z"/>
	<path d="M79,31.9c0.1,0,0.1,0,0.1,0c0,0,0,0,0.1,0c0,0,0,0,0,0c0.3,0,0.4-0.4,0.1-0.5c-0.1,0-0.2,0-0.2,0c0,0,0,0-0.1,0
		c0,0-0.1,0-0.1,0.1c0,0-0.1,0.1,0,0.1C78.7,31.6,78.7,31.9,79,31.9z"/>
	<path d="M84.6,31.2C75,25.6,72.9,14.8,55.5,14.8c-19.4,0-41,20.9-47.7,24c-5.1,2.4-2.1,7.9,2.1,8.7c4.2,0.8,9.7,2.2,16.1,2.7
		c4.7,0.3,7.2,1.7,7.7,3.8c0.1,0.3,0.1,1-0.7,1.7c-4.3,3.6-14,8.6-16.6,11.3c-2.9,2.9-0.5,7.1,0.6,8.7c1,1.5,0.8,1.1,2.7,2.5
		c1.9,1.4,1.3,0.9,4.6,2.2c3.3,1.3,0,0,2.5,1c2.5,1,1.5,0.5,2.5,1.2c1,0.7,2.1,1.6,3.8,1.2c1.7-0.4,2.7,0.3,4,0.3
		c1.3,0,3.9-0.6,5.8,0.1c1.9,0.8,0,0,1.4,0.3c1.4,0.3,2.1-0.3,2.1-1.9c0-1.6,0.4-0.6,1.4-1.8c1-1.2,2.6,1.4,3.4,1.9
		c0.8,0.5,1.7,0.3,4.4,0.3c2.7,0,3.1-0.6,7.3-1.2c4.1-0.5,2.3-0.7,4.5-1.9c2.2-1.1,1.9-0.5,4.5-1.8c2.6-1.3,2-1.8,2.9-2.5
		c0.9-0.7,2.6-1.1,3.4-1.2c0.8-0.1,2.7,0.7,4-1.4c1.2-2.1,2.2-0.4,2.7-1.5c0.5-1,0.2-1.5,1.6-2.4c1.4-0.9,0.2-1.1,0.4-2.8
		c0.2-1.7,0,0,1.5-1.4c1.5-1.4,1-1.2,1.5-3.1c0.4-1.9-2.1-1.9,1.5-5C94.5,53.6,94.2,36.9,84.6,31.2z M90.6,56.7
		c-3.5,3.1-1,3-1.4,4.9c-0.4,1.8,0,1.6-1.4,3c-1.4,1.3-1.2-0.3-1.4,1.3c-0.2,1.6,1,1.9-0.4,2.8c-1.4,0.9-1.1,1.3-1.6,2.4
		c-0.5,1-1.5-0.6-2.7,1.5c-1.2,2.1-3.1,1.3-3.9,1.4s-2.5,0.5-3.4,1.1c-0.9,0.7-0.3,1.2-2.9,2.5c-2.6,1.3-2.3,0.7-4.5,1.8
		c-2.2,1.1-0.4,1.3-4.5,1.9c-4.1,0.5-4.5,1.1-7.2,1.1c-2.7,0-3.5,0.2-4.3-0.3c-0.8-0.5-2.5-3.1-3.5-1.9c-1,1.2-1.4,0.2-1.4,1.8
		c0,1.6-0.8,2.2-2.3,1.9c-1.4-0.3,0.6,0.5-1.4-0.3c-2.1-0.8-3.9-0.1-5.2-0.1c-1.2,0-2.3-0.7-3.9-0.3c-1.6,0.4-2.7-0.5-3.7-1.2
		c-1-0.7,0-0.2-2.5-1.2s0.8,0.3-2.5-1c-3.3-1.3-2.7-0.8-4.5-2.2c-1.9-1.4-1.7-0.9-2.7-2.5c-1-1.5-2.9-4.9,0-7.8
		c2.7-2.7,12.4-7.9,16.8-11.3c3.2-2.5,7-6,7.5-6.5c3.3-3.3,6.4-6.2,7.7-7.6c1.3-1.4,1.7-1.1,2.2-3c0.6-1.9,1.2-1.2,0.9-3
		s-0.2-1.5-0.9-2c-0.6-0.6-1.9,0-2.2-1.2c-0.3-1.2-2.3-1.4-3.6-1.1c-1.3,0.3-1.7,0.7-2,0.9c-0.3,0.2-0.8,1.8-0.1,1.7
		s0.6-0.5,1.2-0.9c0.6-0.4,1-1,1.2-0.5c0.2,0.5,0.6,0.7-0.1,1.1c-0.7,0.4-0.4-0.2-0.7,0.4c-0.4,0.6,0.2,0.5,0.7,0.6
		c0.4,0.1,0.2-0.2,0.7-0.2s1.7,0,1.7,0s0,0,0.1,0c0,0.1,0,0.2,0.2,0.2c0.2,0,0.2,0,0.4,0c0.3,0.1,0.7,0.3,0.9,0.5
		c-0.2,0.1-0.1,0.3,0.1,0.4c0,0,0,0,0,0.1c0,0,0.1,0.1,0.1,0.1c0.1,0.7,0.9,1.3,0.2,1.7c-0.7,0.5-0.4-0.4-0.7,0.5
		c-0.3,0.9,0,0.9-0.3,1.4c-0.3,0.5-0.8,1.4-1.3,2.2c-0.5,0.9-11,10.3-13.6,12.7c-0.5-3.7-4.3-4.4-8.9-4.8c-5.2-0.5-10.6-2.2-14.8-3
		c-3.3-0.6-5.2-3.6-4.3-5.4c0.9-1.8,5.1-3.1,6.2-4.1c14.7-13.2,29.5-22,43-22c9.1,0,13.2,1.9,16.6,6c0.2,0.2,0.5,0.5,0.8,0.9
		c0,0-0.1,0-0.1,0c0,0,0,0,0,0c-0.1,0-0.1,0-0.2,0c-0.1,0-0.1,0.2,0,0.2c0,0,0,0,0.1,0c0,0.1,0.1,0.2,0.2,0.1c0,0,0,0,0.1,0
		c0.1,0,0.1-0.1,0.1-0.2c0.1,0.1,0.2,0.2,0.2,0.3c0,0,0,0,0,0c-0.1,0.1,0,0.2,0.1,0.2c0,0,0.1,0,0.1,0c0,0,0,0,0,0.1
		c-0.1,0.2-0.1,0.4,0.1,0.5c0.1,0.1,0.2,0.1,0.3,0.1c0,0,0,0.1,0.1,0.1c0,0.2,0.1,0.4,0.1,0.6c0,0.1,0.1,0.2,0.2,0.1
		c0.2,0.5,0.5,1,0.9,1.4c-0.2,0-0.3,0.1-0.3,0.3l0,0c0,0,0,0,0,0.1c-0.1,0.1-0.1,0.2,0,0.2c0,0,0,0,0,0c0.1,0,0.1,0.1,0.2,0
		c0,0,0.1,0,0.1,0c0-0.1,0-0.1,0-0.1c0,0,0.1,0,0,0c0.1,0,0.1,0,0.1-0.1c0,0,0,0,0,0c0.1,0.1,0.2,0.2,0.3,0.3c0,0,0,0,0,0
		c0,0,0,0,0,0c-0.2,0.2-0.1,0.7,0.3,0.7c0.1,0,0.3,0,0.4-0.1c0.2,0.2,0.3,0.3,0.4,0.5c-0.1,0-0.2,0.1-0.2,0.1
		c-0.2,0.2,0,0.5,0.2,0.5c0.1,0,0.2,0,0.3,0c0,0,0,0,0,0c0.1,0.2,0.2,0.5,0.2,0.7C77.1,28.8,77,29,77,29.2c0,0,0,0,0,0c0,0,0,0,0,0
		c0,0,0,0,0,0c0,0.1,0,0.1,0.1,0.2c0.1,0.1,0.1,0.2,0.2,0.3c0,0.1,0.1,0.1,0.1,0.2c0.1,0.1,0.2,0.1,0.4,0.1c0,0,0,0,0,0
		c0.1,0,0.1,0.1,0.2,0.1c-0.1,0-0.1,0-0.2,0c-0.1,0.1-0.1,0.2,0,0.3c0.1,0,0.1,0,0.2,0.1c0.2,0.1,0.3-0.1,0.3-0.2
		c0.2,0.1,0.4,0.3,0.6,0.5c0.1,0.1,0.1,0.3,0.2,0.3c0.3,0.2,0.6,0.5,1,0.6c0,0,0,0.1,0,0.1c0,0,0.1,0.1,0.1,0.1c0,0,0.1,0,0.1,0h0
		c0,0,0,0,0,0c0.1,0,0.2,0,0.2-0.1c0.3,0.1,0.6,0.1,0.9,0.1c0,0,0,0,0,0c0.1,0.1,0.2,0,0.4,0c0,0,0.1,0,0.2,0c0,0.1,0.1,0.1,0.2,0.1
		c0,0,0.1,0,0.1,0c0,0,0,0,0,0c0,0,0,0,0,0c0,0,0,0,0,0c0.1,0,0.3-0.1,0.4-0.1c0.5,0,1,0.1,1.5,0.4C94.6,37,94.1,53.6,90.6,56.7z"/>
	<path d="M18.2,70.5c0.1,0,0.1-0.2,0-0.2c-0.2,0-0.5-0.2-0.6,0c0,0,0,0.1,0,0.1C17.7,70.6,18,70.5,18.2,70.5z"/>
	<path d="M37.2,71.8c0-0.1,0-0.2,0.1-0.2c0.1,0,0.3,0.1,0.4,0c0.1-0.1,0.1-0.2,0-0.2c-0.2-0.1-0.4,0-0.6,0C37,71.5,37,71.7,37,71.8
		C37,72,37.2,72,37.2,71.8z"/>
	<path d="M41.4,73.5c0.1,0,0.1,0.1,0.2,0.2c-0.1,0-0.1,0-0.2,0c-0.1,0-0.1,0.1,0,0.2c0.1,0,0.1,0,0.2,0.1c0.1,0,0,0,0.1,0.1
		c0.1,0,0.1,0,0.2,0c0.1,0,0.2-0.1,0.2-0.2c0-0.3-0.3-0.6-0.7-0.5C41.2,73.3,41.2,73.5,41.4,73.5z"/>
	<path d="M32.5,73.9c0.1,0,0.1,0,0.2,0c0,0.1,0.1,0.1,0.1,0.1c0,0,0.1-0.1,0.1-0.1c0.1,0,0.2-0.2,0.1-0.3c-0.1-0.1-0.3-0.1-0.5-0.1
		C32.4,73.6,32.4,73.8,32.5,73.9z"/>
	<path d="M21.5,69.9c0.5-0.5,0.8-0.7,1.6-0.4c0.7,0.2,1.5,0.2,2.2,0.5c0,0,0.1-0.1,0-0.1c-0.5-0.3-1-0.3-1.5-0.4
		c-0.5-0.1-1-0.5-1.5-0.4c-0.9,0.2-1.1,1.2-2.1,0.7C20,69.6,19.8,69.9,20,70C20.6,70.3,21.1,70.4,21.5,69.9z"/>
	<path d="M32.4,74c0.1,0,0.1-0.2,0-0.2C32.3,73.8,32.3,74,32.4,74z"/>
	<path d="M18.8,70.4c0,0,0.1,0,0.1,0c0,0,0,0,0,0c0,0,0.1,0,0.1,0c0.1,0,0.1-0.2,0-0.3c-0.1,0-0.2-0.1-0.3,0
		C18.7,70,18.7,70.2,18.8,70.4C18.7,70.2,18.8,70.3,18.8,70.4z"/>
	<path d="M44.3,71.9c0,0.1,0,0.2,0.1,0.2c0,0,0,0,0,0c0,0,0,0.1,0,0.1c0,0.1,0.1,0.1,0.2,0.1c0.1,0,0.3,0,0.3-0.2
		c0.1-0.2,0-0.4,0-0.5c0-0.1-0.1-0.1-0.2-0.2c-0.1,0-0.3,0-0.3,0.1C44.3,71.7,44.3,71.8,44.3,71.9z"/>
	<path d="M75.1,28.9v-0.3c0-0.1,0-0.1-0.1-0.1c0,0,0,0-0.1,0c0,0-0.1,0-0.1,0.1v0.3C74.9,29,75.1,29,75.1,28.9z"/>
	<path d="M75.4,29c-0.1,0.2,0,0.4,0.2,0.4c0.1,0,0.4,0.2,0.5,0c0.1-0.2-0.1-0.4-0.2-0.5C75.7,28.8,75.5,28.8,75.4,29z"/>
	<path d="M74.2,26.8c0,0.1-0.2,0.1-0.3,0.2c-0.1,0.1-0.1,0.2,0,0.2c0.1,0,0.2,0,0.3-0.1C74.4,27,74.3,26.9,74.2,26.8
		C74.3,26.7,74.2,26.8,74.2,26.8z"/>
	<path d="M75.1,27.8c0,0,0.1,0.1,0.1,0.1c0,0,0,0.1,0,0.1c0.1,0.2,0.4,0.1,0.3-0.1c0-0.1-0.1-0.2-0.1-0.2c0,0,0-0.1,0-0.1
		c0-0.1-0.1-0.1-0.1-0.1c0,0-0.1,0-0.2,0c-0.1,0-0.2,0.2-0.2,0.3C75,27.7,75,27.8,75.1,27.8z"/>
	<path d="M73.6,25.2C73.7,25.2,73.7,25.2,73.6,25.2c0.1,0.1,0.2,0.1,0.2,0.1c0.3,0.1,0.5-0.3,0.3-0.5c-0.1-0.1-0.2-0.1-0.3-0.2
		c-0.1,0-0.3,0-0.4,0.1C73.4,24.9,73.5,25.1,73.6,25.2z"/>
	<path d="M74,65.2C74,65.2,74,65.2,74,65.2c0.1,0,0.1-0.1,0.2-0.2c0-0.1,0-0.2,0-0.2c0-0.3-0.6-0.4-0.5,0c0,0.1,0,0.2,0,0.2
		c0,0.1,0.1,0.1,0.2,0.2c0,0,0,0,0,0C73.8,65.3,74,65.3,74,65.2z"/>
	<path d="M73.6,69.8C73.6,69.8,73.6,69.8,73.6,69.8c-0.2,0-0.3,0-0.4,0c-0.1,0-0.1,0.1,0,0.1c0.1,0.1,0.2,0.1,0.3,0.2
		c0,0.1,0.2,0.1,0.2,0c0-0.1,0-0.1,0.1-0.1c0.1,0,0.1-0.1,0-0.1c-0.1,0-0.1,0-0.2,0C73.7,69.8,73.6,69.8,73.6,69.8z"/>
	<path d="M75.9,30.8c0,0.2,0.2,0.2,0.3,0.1c0,0,0,0,0,0c0,0,0,0,0,0c0.2,0,0.2-0.4,0-0.4c-0.1,0-0.1,0-0.2,0c-0.1,0-0.2,0.1-0.2,0.2
		C76,30.7,75.9,30.8,75.9,30.8z"/>
	<path d="M78.9,59.5C78.9,59.6,78.9,59.6,78.9,59.5C78.9,59.6,78.9,59.6,78.9,59.5c0,0.2,0.1,0.4,0.3,0.4c0.4-0.1,0.8-0.3,0.9-0.7
		c0-0.1-0.1-0.2-0.2-0.2c-0.2,0-0.6,0.1-0.7,0.4c0,0,0,0,0,0c0,0,0,0-0.1,0c-0.1,0-0.3,0-0.4,0c-0.1,0-0.1,0.1,0,0.1
		C78.8,59.5,78.9,59.5,78.9,59.5z"/>
	<path d="M77.3,31.3c0.1,0,0.2,0,0.3-0.1c0.1-0.1,0.1-0.2,0-0.3c-0.1-0.1-0.2-0.1-0.3-0.1C77,30.8,77,31.2,77.3,31.3z"/>
	<path d="M77.4,63.8C77.4,63.8,77.3,63.8,77.4,63.8c-0.1,0-0.2,0.1-0.2,0.1c-0.1,0-0.2,0.1-0.2,0.2c0,0.1,0.1,0.1,0.1,0.1
		c0.1,0,0.1,0.1,0.2,0.1c0.2,0,0.4-0.1,0.5-0.2c0.3-0.2-0.1-0.6-0.4-0.4C77.5,63.7,77.4,63.8,77.4,63.8z"/>
	<path d="M76.7,29c0.2,0.1,0.5-0.1,0.3-0.3c0,0,0,0,0,0c-0.1-0.1-0.2-0.2-0.3-0.1c-0.1,0-0.1,0.1-0.2,0.2c0,0,0,0,0,0
		C76.5,28.8,76.6,28.9,76.7,29L76.7,29z"/>
	<path d="M76.8,29.5c-0.2,0-0.3,0.3-0.1,0.4c0,0,0.1,0.1,0.1,0.1c0,0,0.1,0,0.2,0c0.2,0,0.4-0.3,0.2-0.4c0,0,0,0,0,0c0,0,0,0,0,0
		C77,29.5,76.9,29.5,76.8,29.5L76.8,29.5z"/>
	<path d="M73,23.7c0.1,0,0.2,0,0.2,0c0.1,0,0.2-0.1,0.1-0.2c0-0.1,0-0.1-0.1-0.1c0,0-0.1,0-0.1,0c0,0,0,0,0,0.1c0,0-0.1,0-0.1,0
		C72.9,23.5,72.9,23.7,73,23.7z"/>
	<path d="M65.3,71.1c0.1,0,0.1,0,0.2,0c0.2,0,0.2-0.3,0-0.4c-0.1,0-0.1,0-0.2,0C65.1,70.6,65.1,71.1,65.3,71.1z"/>
	<path d="M65.1,72.9C65.1,72.9,65.1,72.9,65.1,72.9C65.1,72.9,65.1,72.9,65.1,72.9c0.1-0.1,0.1-0.2,0.1-0.3c0-0.2-0.1-0.2-0.2-0.2
		c-0.1,0-0.2,0-0.3,0.2c0,0.1,0,0.1,0.1,0.2c0,0,0,0,0,0c0,0-0.1,0.1-0.1,0.1C64.7,73.1,65.1,73.1,65.1,72.9z"/>
	<path d="M67.6,71.7c0.1,0,0.1-0.2,0-0.2c-0.1,0-0.3,0-0.4,0c-0.1,0-0.1,0.1,0,0.1C67.3,71.6,67.5,71.6,67.6,71.7z"/>
	<path d="M68,71.3c0,0,0.1,0.1,0.1,0.1c0,0.1,0.1,0.1,0.1,0c0,0,0.1-0.1,0.1-0.1c0.1-0.1,0-0.3-0.2-0.3C68.1,71,67.9,71.1,68,71.3z"
		/>
	<path d="M61.9,67.5c0.5-0.2,1.1-0.3,1.6-0.6c0,0,0,0,0,0c0,0,0,0.1,0,0.2c0.1,0.1,0.1,0.1,0.2,0.1c0,0,0,0,0,0c0.1,0,0.3,0,0.3-0.2
		c0-0.2,0-0.3-0.1-0.4c-0.1-0.1-0.3-0.1-0.4-0.1c-0.3,0-0.4,0.3-0.3,0.5c-0.6,0.1-1.1,0.2-1.6,0.5C61.7,67.3,61.8,67.5,61.9,67.5z"
		/>
	<path d="M62.1,72.7c0.1,0,0.1-0.1,0-0.1c0,0-0.1,0-0.1,0c0,0,0-0.1,0-0.1c0.1-0.2-0.3-0.2-0.3,0c0,0.1,0,0.2,0.1,0.2
		C61.9,72.7,62,72.7,62.1,72.7z"/>
	<path d="M68.1,66.4c0.6-0.1,1.3-0.4,1.7-0.9c0.1-0.1,0-0.2-0.1-0.3c-0.2,0-0.4-0.1-0.5-0.1c-0.1,0-0.3,0-0.3,0.2c0,0,0,0,0,0.1
		c0,0,0,0,0,0c0,0-0.1,0.1-0.1,0.1c0,0,0,0.1,0,0.2c-0.3,0.1-0.5,0.2-0.8,0.3C67.6,66,67.8,66.4,68.1,66.4z"/>
	<path d="M69.9,63.5c0.3,0.1,0.5,0,0.7,0.1c0,0,0,0,0,0c-0.2,0-0.2,0.2-0.1,0.4c0.1,0.1,0.3,0.1,0.4,0c0.1-0.1,0.1-0.2,0-0.3
		c0,0,0-0.1,0-0.2c0-0.1-0.1-0.3-0.2-0.4c-0.2-0.2-0.6-0.3-0.8-0.2C69.6,62.9,69.6,63.4,69.9,63.5z"/>
	<path d="M72.2,67.2c0.1,0.1,0.1,0.1,0.2,0.2c0.1,0,0.2,0,0.3,0c0,0,0,0,0.1,0c0.2-0.1,0.2-0.3,0-0.4c0,0,0,0-0.1,0
		c-0.1-0.1-0.2-0.1-0.3-0.1c-0.1,0-0.2,0.1-0.2,0.1c-0.1,0-0.2,0-0.3,0.1c0,0,0,0.1,0,0.1C71.9,67.2,72,67.2,72.2,67.2z"/>
	<path d="M61.9,72.9c0.1,0,0.1-0.2,0-0.2c-0.1,0-0.3,0-0.3,0.1C61.6,72.9,61.8,72.9,61.9,72.9z"/>
	<path d="M70.6,70.8c0,0,0.1,0,0.1-0.1c0.1-0.1,0.1-0.2,0.1-0.3c0-0.1-0.2-0.2-0.3-0.1c-0.1,0.1-0.3,0.3-0.2,0.5
		c0,0.1,0.1,0.1,0.2,0.1C70.5,70.9,70.5,70.9,70.6,70.8C70.6,70.9,70.6,70.9,70.6,70.8C70.6,70.9,70.6,70.9,70.6,70.8
		C70.6,70.9,70.6,70.9,70.6,70.8z"/>
	<path d="M69.4,68.9c-0.1,0-0.1,0.1-0.2,0.1c-0.2,0-0.2,0.3,0,0.3c0.1,0,0.2,0,0.2-0.1c0.1,0,0.1-0.1,0.2-0.1c0.1,0,0.2-0.3,0-0.3
		C69.6,68.9,69.5,68.9,69.4,68.9z"/>
</g>
</svg>
